<svg xmlns="http://www.w3.org/2000/svg" viewBox="0 0 680.74 404.12"><defs><style>.cls-1{fill:#ebebeb;}.cls-2{fill:#f5f5f5;}.cls-3{fill:#e0e0e0;}.cls-4{fill:#fff;}.cls-5{fill:#fafafa;}.cls-6{fill:#ffbe9d;}.cls-7{fill:#eb996e;}.cls-8{fill:#263238;}.cls-9{fill:#455a64;}.cls-10{opacity:0.3;}.cls-11{fill:#ff725e;}.cls-12{fill:#2c72d4;}</style></defs><g id="Background_Complete" data-name="Background Complete"><path class="cls-1" d="M670.59,263.71H610.07a7.57,7.57,0,0,1-7.57-7.57V172.38a7.57,7.57,0,0,1,7.57-7.57h38.38l29.71,30.62v60.71A7.57,7.57,0,0,1,670.59,263.71Z" transform="translate(-41.14 -57.31)"/><path class="cls-2" d="M648.45,164.81v23.57a7.05,7.05,0,0,0,7,7.05h22.67Z" transform="translate(-41.14 -57.31)"/><path class="cls-3" d="M648.76,190.45s-.3,5.72,6.21,7.6c.25.07.5.12.75.17,3,.53,22.44,4,22.44,3.54v-6.33H655.49S649.83,195.24,648.76,190.45Z" transform="translate(-41.14 -57.31)"/><path class="cls-3" d="M670.59,263.71s.45,0,1.31-.15a7.66,7.66,0,0,0,3.43-1.6,7.5,7.5,0,0,0,2.71-5.34c0-2.44,0-5.28,0-8.44,0-12.68-.06-30.83-.1-52.75l.06.15L648.27,165l.18.08H611.78a18.52,18.52,0,0,0-2.9.11,7.29,7.29,0,0,0-4.75,3,7.18,7.18,0,0,0-1.34,3.72c0,1.34,0,2.74,0,4.11v24.14c0,10.47,0,20.57,0,30.2q0,7.22,0,14.06c0,2.28,0,4.52,0,6.74v3.29a17.5,17.5,0,0,0,.14,3.18,7.38,7.38,0,0,0,3.43,4.87,7.23,7.23,0,0,0,2.79,1,24.61,24.61,0,0,0,3,.08l11.42,0,34.47.08,9.37.05,2.44,0,.83,0-.83,0-2.44,0-9.37,0-34.47.09H612.06a26,26,0,0,1-3-.07,7.76,7.76,0,0,1-6.58-6.18,17,17,0,0,1-.16-3.26v-3.29c0-2.22,0-4.46,0-6.74q0-6.84,0-14.06c0-9.63,0-19.73,0-30.2q0-7.86,0-16V176c0-1.38,0-2.73,0-4.15a7.8,7.8,0,0,1,6.52-7.16,18.91,18.91,0,0,1,3-.11h36.78l.07.08,29.69,30.64.06.06v.09c0,21.92-.07,40.07-.09,52.75,0,3.17,0,6-.06,8.45a7.59,7.59,0,0,1-6.32,7,5.06,5.06,0,0,1-1,.08A2.73,2.73,0,0,1,670.59,263.71Z" transform="translate(-41.14 -57.31)"/><path class="cls-3" d="M678.16,195.43a2.65,2.65,0,0,1-.58,0l-1.67.05-6.14.08-9.11.06h-5.38a7.33,7.33,0,0,1-6.75-5.09,8.28,8.28,0,0,1-.33-2.89c0-1.87,0-3.67,0-5.38,0-3.41,0-6.5.06-9.11s.06-4.62.08-6.14c0-.68,0-1.23,0-1.67a2.65,2.65,0,0,1,.05-.58,2,2,0,0,1,0,.58c0,.44,0,1,0,1.67,0,1.52.05,3.6.09,6.14s0,5.7.05,9.11c0,1.71,0,3.51,0,5.38a7,7,0,0,0,1.7,5.17,6.8,6.8,0,0,0,4.88,2.3l5.37,0,9.11.05,6.14.09,1.67,0A2,2,0,0,1,678.16,195.43Z" transform="translate(-41.14 -57.31)"/><path class="cls-3" d="M647.31,185.84c0,.15-7.15.27-16,.27s-16-.12-16-.27,7.15-.26,16-.26S647.31,185.7,647.31,185.84Z" transform="translate(-41.14 -57.31)"/><path class="cls-3" d="M662.46,197.6c0,.15-10.54.26-23.54.26s-23.54-.11-23.54-.26,10.54-.26,23.54-.26S662.46,197.46,662.46,197.6Z" transform="translate(-41.14 -57.31)"/><path class="cls-3" d="M662.46,209.36c0,.15-10.54.26-23.54.26s-23.54-.11-23.54-.26,10.54-.26,23.54-.26S662.46,209.22,662.46,209.36Z" transform="translate(-41.14 -57.31)"/><path class="cls-3" d="M662.46,221.12c0,.15-10.54.26-23.54.26s-23.54-.11-23.54-.26,10.54-.26,23.54-.26S662.46,221,662.46,221.12Z" transform="translate(-41.14 -57.31)"/><path class="cls-3" d="M662.46,232.88c0,.15-10.54.26-23.54.26s-23.54-.11-23.54-.26,10.54-.26,23.54-.26S662.46,232.74,662.46,232.88Z" transform="translate(-41.14 -57.31)"/><path class="cls-3" d="M662.46,247.39c0,.14-10.54.26-23.54.26s-23.54-.12-23.54-.26,10.54-.26,23.54-.26S662.46,247.24,662.46,247.39Z" transform="translate(-41.14 -57.31)"/><rect class="cls-3" x="547.79" y="166.98" width="51.4" height="23.1" rx="4.22"/><path class="cls-4" d="M594.89,231.82h4c2.86,0,4.81,1.72,4.81,4.37s-1.95,4.36-4.81,4.36h-4Zm3.86,7.07a2.71,2.71,0,1,0,0-5.41h-1.84v5.41Z" transform="translate(-41.14 -57.31)"/><path class="cls-4" d="M604.63,236.19a4.78,4.78,0,1,1,4.78,4.51A4.52,4.52,0,0,1,604.63,236.19Zm7.51,0a2.73,2.73,0,1,0-2.73,2.79A2.66,2.66,0,0,0,612.14,236.19Z" transform="translate(-41.14 -57.31)"/><path class="cls-4" d="M615.15,236.19a4.8,4.8,0,0,1,8.33-3l-1.3,1.2a2.77,2.77,0,0,0-2.19-1,2.79,2.79,0,1,0,0,5.58,2.76,2.76,0,0,0,2.19-1l1.3,1.2a4.8,4.8,0,0,1-8.33-2.95Z" transform="translate(-41.14 -57.31)"/><path class="cls-4" d="M630.16,240.55l-2.11-3-2.06,3h-2.32l3.23-4.44-3.07-4.29h2.29l2,2.83,2-2.83h2.18l-3,4.22,3.25,4.51Z" transform="translate(-41.14 -57.31)"/><path class="cls-1" d="M598.76,371.87,552.94,452l-90.67,1.31a5.48,5.48,0,0,0-5.4,5.18h0l92.2.26,3.47-.11,115.44.22,23.33-40.23,29.8-42.71a4.22,4.22,0,0,0-3.47-6.63l-115.24.44A4.23,4.23,0,0,0,598.76,371.87Z" transform="translate(-41.14 -57.31)"/><path class="cls-3" d="M721.13,372.34a2,2,0,0,1-.55.06l-1.63.06-6.23.1-22.92.19-75.64.16h-5.51a4.54,4.54,0,0,0-4.19,2l-5.14,9.26-9.73,17.56-16.53,29.72c-4.71,8.37-8.54,15.17-11.24,20l-3.1,5.4c-.34.56-.61,1-.84,1.39a2.63,2.63,0,0,1-.31.46,1.71,1.71,0,0,1,.21-.52l.74-1.44,2.91-5.51c2.63-4.85,6.35-11.71,10.92-20.16l16.32-29.83,9.68-17.6,5.16-9.33a5.67,5.67,0,0,1,5.14-2.5h5.51l75.64.17,22.92.18,6.23.11,1.63,0A2,2,0,0,1,721.13,372.34Z" transform="translate(-41.14 -57.31)"/><path class="cls-4" d="M639.89,412.63c-2,2.26-2.09,5.54-.11,7.33s5.24,1.4,7.28-.86,2.09-5.54.11-7.33S641.93,410.37,639.89,412.63Z" transform="translate(-41.14 -57.31)"/><path class="cls-2" d="M56.44,373.38V421.3h-8v5.21h8v32.07H206V429.39H194.94V423H206V413.5H211v-4.33H205.1V373.38Z" transform="translate(-41.14 -57.31)"/><polygon class="cls-3" points="125.16 316.2 125.16 400.74 164.88 400.74 164.88 371.55 153.8 371.55 153.8 365.72 164.88 365.92 164.88 356.38 169.9 356.39 169.81 351.46 163.96 351.32 163.96 316.06 125.16 316.2"/><path class="cls-3" d="M169.13,425.82c0,.29-27.07.53-60.45.53s-60.45-.24-60.45-.53,27.06-.53,60.45-.53S169.13,425.52,169.13,425.82Z" transform="translate(-41.14 -57.31)"/><path class="cls-3" d="M169.13,421c0,.29-27.07.53-60.45.53s-60.45-.24-60.45-.53,27.06-.53,60.45-.53S169.13,420.66,169.13,421Z" transform="translate(-41.14 -57.31)"/><path class="cls-3" d="M176.89,407.85c0,.29-27.06.53-60.44.53S56,408.14,56,407.85s27.06-.54,60.46-.54S176.89,407.55,176.89,407.85Z" transform="translate(-41.14 -57.31)"/><path class="cls-3" d="M177.64,443.55c0,.29-27.07.53-60.45.53s-60.45-.24-60.45-.53S83.8,443,117.19,443,177.64,443.26,177.64,443.55Z" transform="translate(-41.14 -57.31)"/><path class="cls-1" d="M555.58,169.36H496.47a7.39,7.39,0,0,1-7.4-7.39V80.14a7.39,7.39,0,0,1,7.4-7.39H534l29,29.91V162A7.39,7.39,0,0,1,555.58,169.36Z" transform="translate(-41.14 -57.31)"/><path class="cls-2" d="M534,72.75v23a6.88,6.88,0,0,0,6.88,6.88H563Z" transform="translate(-41.14 -57.31)"/><path class="cls-3" d="M534.26,97.8s-.29,5.58,6.07,7.42a6.2,6.2,0,0,0,.72.16c2.9.52,21.93,3.9,21.93,3.47v-6.19H540.84S535.31,102.47,534.26,97.8Z" transform="translate(-41.14 -57.31)"/><path class="cls-3" d="M555.58,169.36s.45,0,1.28-.15a7.33,7.33,0,0,0,6-6.78c0-2.38,0-5.15,0-8.24,0-12.39-.05-30.12-.09-51.53l.06.15-29-29.89L534,73H498.14a18.93,18.93,0,0,0-2.84.1A7.15,7.15,0,0,0,490.66,76a7,7,0,0,0-1.3,3.63c-.06,1.31,0,2.69,0,4v8c0,5.28,0,10.49,0,15.6,0,10.23,0,20.1,0,29.5q0,7.05,0,13.74c0,2.22,0,4.42,0,6.58v3.21a16.73,16.73,0,0,0,.14,3.11,7.17,7.17,0,0,0,3.34,4.75,6.92,6.92,0,0,0,2.73,1,25.41,25.41,0,0,0,2.9.08l11.16,0,33.68.08,9.15.05,2.38,0,.81,0-.81,0-2.38,0-9.15,0-33.68.09H498.4a26.88,26.88,0,0,1-3-.07,7.6,7.6,0,0,1-6.44-6,17.24,17.24,0,0,1-.15-3.2v-3.21c0-2.16,0-4.36,0-6.58q0-6.69,0-13.74c0-9.4,0-19.27,0-29.5V83.65c0-1.35,0-2.67,0-4.05a7.48,7.48,0,0,1,1.4-3.9,7.62,7.62,0,0,1,5-3.1,18.12,18.12,0,0,1,2.93-.11h35.92l.08.07,29,29.94.07.06v.09c0,21.41-.07,39.14-.1,51.53,0,3.09,0,5.84-.05,8.25a7.39,7.39,0,0,1-6.18,6.84,4.79,4.79,0,0,1-1,.08Z" transform="translate(-41.14 -57.31)"/><path class="cls-3" d="M563,102.66a2.6,2.6,0,0,1-.57,0l-1.63.05-6,.08-8.89,0h-5.26a7.15,7.15,0,0,1-6.6-5,8.4,8.4,0,0,1-.33-2.83c0-1.82,0-3.57,0-5.25,0-3.33,0-6.34,0-8.9s.07-4.51.09-6c0-.66,0-1.2,0-1.63a1.88,1.88,0,0,1,.05-.56,2.44,2.44,0,0,1,0,.56l0,1.63c0,1.49.05,3.52.08,6s0,5.57.06,8.9c0,1.68,0,3.43,0,5.25a6.87,6.87,0,0,0,1.66,5,6.66,6.66,0,0,0,4.77,2.25l5.25,0,8.89.06,6,.09,1.63,0A2.18,2.18,0,0,1,563,102.66Z" transform="translate(-41.14 -57.31)"/><path class="cls-3" d="M532.84,93.29c0,.15-7,.27-15.59.27s-15.6-.12-15.6-.27,7-.26,15.6-.26S532.84,93.15,532.84,93.29Z" transform="translate(-41.14 -57.31)"/><path class="cls-3" d="M547.64,104.78c0,.15-10.3.26-23,.26s-23-.11-23-.26,10.29-.26,23-.26S547.64,104.64,547.64,104.78Z" transform="translate(-41.14 -57.31)"/><path class="cls-3" d="M547.64,116.27c0,.14-10.3.26-23,.26s-23-.12-23-.26,10.29-.26,23-.26S547.64,116.13,547.64,116.27Z" transform="translate(-41.14 -57.31)"/><path class="cls-3" d="M547.64,127.76c0,.14-10.3.26-23,.26s-23-.12-23-.26,10.29-.26,23-.26S547.64,127.61,547.64,127.76Z" transform="translate(-41.14 -57.31)"/><path class="cls-3" d="M547.64,139.25c0,.14-10.3.26-23,.26s-23-.12-23-.26,10.29-.26,23-.26S547.64,139.1,547.64,139.25Z" transform="translate(-41.14 -57.31)"/><path class="cls-3" d="M547.64,153.41c0,.15-10.3.26-23,.26s-23-.11-23-.26,10.29-.26,23-.26S547.64,153.27,547.64,153.41Z" transform="translate(-41.14 -57.31)"/><rect class="cls-3" x="434.68" y="73.54" width="50.21" height="22.56" rx="4.22"/><path class="cls-4" d="M495.44,141.3c0,1.9-1.42,3.09-3.7,3.09H490v2.35h-2v-8.53h3.69C494,138.21,495.44,139.39,495.44,141.3Zm-2,0c0-.93-.61-1.48-1.82-1.48H490v3h1.6C492.84,142.78,493.45,142.23,493.45,141.3Z" transform="translate(-41.14 -57.31)"/><path class="cls-4" d="M496.84,138.21h3.88c2.78,0,4.7,1.68,4.7,4.26s-1.92,4.27-4.7,4.27h-3.88Zm3.78,6.91a2.65,2.65,0,1,0,0-5.29h-1.8v5.29Z" transform="translate(-41.14 -57.31)"/><path class="cls-4" d="M508.87,139.79v2.26h4v1.58h-4v3.11h-2v-8.53h6.44v1.58Z" transform="translate(-41.14 -57.31)"/><rect class="cls-1" x="257" y="78.47" width="31.94" height="55.04" transform="translate(504.8 154.66) rotate(180)"/><rect class="cls-1" x="167.91" y="65.67" width="25.22" height="68.71" transform="translate(319.9 142.75) rotate(180)"/><path class="cls-5" d="M167.62,70.64c0-.21,5.76-.39,12.88-.39s12.88.18,12.88.39-5.77.38-12.88.38S167.62,70.85,167.62,70.64Z" transform="translate(-41.14 -57.31)"/><path class="cls-5" d="M169,73.9c0-.22,5.46-.39,12.18-.39s12.19.17,12.19.39-5.46.38-12.19.38S169,74.11,169,73.9Z" transform="translate(-41.14 -57.31)"/><path class="cls-5" d="M179.8,120.84c-.21,0-.39-9.11-.39-20.33s.18-20.33.39-20.33.38,9.1.38,20.33S180,120.84,179.8,120.84Z" transform="translate(-41.14 -57.31)"/><path class="cls-5" d="M167.91,127.12c0-.21,5.53-.38,12.34-.38s12.35.17,12.35.38-5.53.38-12.35.38S167.91,127.33,167.91,127.12Z" transform="translate(-41.14 -57.31)"/><path class="cls-5" d="M167.91,130.07c0-.21,5.66-.38,12.65-.38s12.66.17,12.66.38-5.67.38-12.66.38S167.91,130.28,167.91,130.07Z" transform="translate(-41.14 -57.31)"/><rect class="cls-3" x="193.11" y="58.24" width="20.26" height="76.14" transform="translate(365.34 135.31) rotate(180)"/><path class="cls-5" d="M193,93.21a19.54,19.54,0,0,1,3.14,2.17l7.31,5.55,7.3,5.56a20,20,0,0,1,2.93,2.44,18.57,18.57,0,0,1-3.25-2c-1.94-1.33-4.59-3.22-7.44-5.39s-5.39-4.21-7.19-5.73A18.3,18.3,0,0,1,193,93.21Z" transform="translate(-41.14 -57.31)"/><path class="cls-5" d="M192.9,81.29c.13-.16,4.78,3.59,10.36,8.38s10,8.8,9.87,9-4.78-3.59-10.37-8.38S192.76,81.45,192.9,81.29Z" transform="translate(-41.14 -57.31)"/><rect class="cls-1" x="105.06" y="61.9" width="9.69" height="72.53" transform="translate(178.68 139.03) rotate(180)"/><path class="cls-5" d="M105.47,71.79c0,.25,2,.45,4.54.45s4.54-.2,4.54-.45-2-.46-4.54-.46S105.47,71.53,105.47,71.79Z" transform="translate(-41.14 -57.31)"/><path class="cls-5" d="M105.27,70.21c0,.25,2,.45,4.54.45s4.54-.2,4.54-.45-2-.46-4.54-.46S105.27,70,105.27,70.21Z" transform="translate(-41.14 -57.31)"/><path class="cls-5" d="M105.47,128.83c0,.25,2,.46,4.54.46s4.54-.21,4.54-.46-2-.46-4.54-.46S105.47,128.58,105.47,128.83Z" transform="translate(-41.14 -57.31)"/><path class="cls-5" d="M105.27,127.25c0,.25,2,.46,4.54.46s4.54-.21,4.54-.46-2-.46-4.54-.46S105.27,127,105.27,127.25Z" transform="translate(-41.14 -57.31)"/><path class="cls-5" d="M110.2,117.78c.26,0,.46-8.31.46-18.56s-.2-18.55-.46-18.55-.45,8.3-.45,18.55S110,117.78,110.2,117.78Z" transform="translate(-41.14 -57.31)"/><rect class="cls-3" x="148.49" y="61.44" width="19.38" height="72.53" transform="translate(275.22 138.1) rotate(180)"/><path class="cls-5" d="M162.42,134.9a1.51,1.51,0,0,0,.22-.39c.14-.27.33-.67.56-1.21a20.92,20.92,0,0,0,1.4-4.92,12.81,12.81,0,0,0-1.13-8,10.78,10.78,0,0,0-3.43-3.79,8.06,8.06,0,0,0-5.59-1.32,5.92,5.92,0,0,0-2.88,1.34,3.79,3.79,0,0,0-1.39,3.06,4.37,4.37,0,0,0,1.66,3.07,5.88,5.88,0,0,0,3.3,1.4,8.76,8.76,0,0,0,6.87-2.5,11.07,11.07,0,0,0,3.41-7,18.58,18.58,0,0,0-1-8.09,14.94,14.94,0,0,0-4.75-7.07,7.85,7.85,0,0,0-4.18-1.65,5.44,5.44,0,0,0-4.36,1.55,3.5,3.5,0,0,0-1,2.27,4.16,4.16,0,0,0,.66,2.37,6.32,6.32,0,0,0,3.92,2.67,9.12,9.12,0,0,0,8.53-2.86,14.27,14.27,0,0,0,3.33-8.17,20,20,0,0,0-.84-8.46,11.64,11.64,0,0,0-5-6.44A8.55,8.55,0,0,0,153,80a4.05,4.05,0,0,0-2.51,3,4.7,4.7,0,0,0,.88,3.65,6.05,6.05,0,0,0,6.53,1.73,11.23,11.23,0,0,0,5.15-3.66A16.43,16.43,0,0,0,167,74.74a16,16,0,0,0-4.84-12,10.17,10.17,0,0,0-1-.87,1.82,1.82,0,0,0-.37-.26A18.55,18.55,0,0,1,164.84,67a15.77,15.77,0,0,1,1.6,7.7,16,16,0,0,1-3.85,9.55,10.58,10.58,0,0,1-4.86,3.4,5.33,5.33,0,0,1-5.72-1.5,3.94,3.94,0,0,1-.72-3,3.27,3.27,0,0,1,2.06-2.38,7.78,7.78,0,0,1,6.94.8,10.85,10.85,0,0,1,4.62,6,19.38,19.38,0,0,1,.77,8.09,13.42,13.42,0,0,1-3.11,7.65,8.24,8.24,0,0,1-7.66,2.58,5.39,5.39,0,0,1-3.34-2.26,2.78,2.78,0,0,1,.21-3.54,4.56,4.56,0,0,1,3.64-1.27,7,7,0,0,1,3.7,1.46,14.21,14.21,0,0,1,4.47,6.64,17.76,17.76,0,0,1,1,7.71,10.22,10.22,0,0,1-3.12,6.49,8,8,0,0,1-6.24,2.33c-2.13-.17-4.21-1.8-4.34-3.76a3.15,3.15,0,0,1,1.13-2.52,5.33,5.33,0,0,1,2.55-1.2,7.41,7.41,0,0,1,5.16,1.17,10,10,0,0,1,3.3,3.55,12.5,12.5,0,0,1,1.23,7.69,22.72,22.72,0,0,1-1.23,4.9C162.63,134.33,162.38,134.89,162.42,134.9Z" transform="translate(-41.14 -57.31)"/><rect class="cls-5" x="114.6" y="67.95" width="33.62" height="66.06" transform="translate(221.69 144.64) rotate(180)"/><path class="cls-3" d="M115.75,78.92c0,.26,7.29.46,16.28.46s16.27-.2,16.27-.46S141,78.47,132,78.47,115.75,78.67,115.75,78.92Z" transform="translate(-41.14 -57.31)"/><path class="cls-3" d="M115.34,83.93c0,.25,7.19.46,16.06.46s16.07-.21,16.07-.46-7.19-.46-16.07-.46S115.34,83.68,115.34,83.93Z" transform="translate(-41.14 -57.31)"/><path class="cls-3" d="M114.26,126.54c0,.25,7.57.45,16.91.45s16.92-.2,16.92-.45-7.57-.46-16.92-.46S114.26,126.29,114.26,126.54Z" transform="translate(-41.14 -57.31)"/><path class="cls-3" d="M114.71,120.65c0,.25,7.38.46,16.48.46s16.49-.21,16.49-.46-7.38-.46-16.49-.46S114.71,120.4,114.71,120.65Z" transform="translate(-41.14 -57.31)"/><rect class="cls-1" x="213.36" y="60.97" width="19.38" height="72.53" transform="translate(404.95 137.17) rotate(180)"/><path class="cls-5" d="M227.28,134.44s.09-.13.23-.4.32-.67.55-1.2a21,21,0,0,0,1.41-4.92,12.8,12.8,0,0,0-1.13-8,10.56,10.56,0,0,0-3.44-3.79,8,8,0,0,0-5.58-1.32,5.85,5.85,0,0,0-2.89,1.33,3.83,3.83,0,0,0-1.39,3.06,4.46,4.46,0,0,0,1.66,3.08,6.09,6.09,0,0,0,3.31,1.4,8.82,8.82,0,0,0,6.87-2.5,11.05,11.05,0,0,0,3.4-7,18.43,18.43,0,0,0-1-8.09,14.92,14.92,0,0,0-4.75-7.07,7.77,7.77,0,0,0-4.19-1.65A5.42,5.42,0,0,0,216,99a3.59,3.59,0,0,0-1,2.27,4.15,4.15,0,0,0,.67,2.37,6.29,6.29,0,0,0,3.91,2.67,9.13,9.13,0,0,0,8.54-2.86,14.23,14.23,0,0,0,3.32-8.16,20.1,20.1,0,0,0-.83-8.47,11.72,11.72,0,0,0-5-6.44,8.61,8.61,0,0,0-7.7-.81,4.08,4.08,0,0,0-2.5,3,4.73,4.73,0,0,0,.88,3.66,6,6,0,0,0,6.53,1.72A11.26,11.26,0,0,0,228,84.22a16.5,16.5,0,0,0,3.87-10,15.94,15.94,0,0,0-1.8-7.88,15.59,15.59,0,0,0-3-4.11c-.43-.4-.77-.69-1-.87s-.36-.27-.37-.25a18.55,18.55,0,0,1,4.11,5.39,15.89,15.89,0,0,1,1.6,7.7,16.07,16.07,0,0,1-3.85,9.55,10.65,10.65,0,0,1-4.86,3.4,5.33,5.33,0,0,1-5.72-1.51,3.89,3.89,0,0,1-.72-3,3.21,3.21,0,0,1,2.06-2.37,7.74,7.74,0,0,1,6.94.79,10.84,10.84,0,0,1,4.61,6,19.23,19.23,0,0,1,.77,8.09,13.38,13.38,0,0,1-3.1,7.65,8.24,8.24,0,0,1-7.66,2.58,5.36,5.36,0,0,1-3.35-2.26,2.79,2.79,0,0,1,.22-3.54,4.57,4.57,0,0,1,3.63-1.26A6.88,6.88,0,0,1,224,99.78a14,14,0,0,1,4.46,6.64,17.6,17.6,0,0,1,1,7.71,10.25,10.25,0,0,1-3.12,6.48,8,8,0,0,1-6.24,2.34c-2.13-.18-4.21-1.8-4.34-3.76a3.1,3.1,0,0,1,1.13-2.52,5.19,5.19,0,0,1,2.55-1.2,7.4,7.4,0,0,1,5.16,1.16,10.29,10.29,0,0,1,3.3,3.55,12.66,12.66,0,0,1,1.23,7.69,23,23,0,0,1-1.23,4.9C227.49,133.86,227.25,134.42,227.28,134.44Z" transform="translate(-41.14 -57.31)"/><rect class="cls-3" x="78.13" y="57.31" width="26.93" height="76.2" transform="translate(142.06 133.51) rotate(180)"/><rect class="cls-3" x="232.74" y="65.67" width="25.19" height="67.83" transform="translate(449.52 141.87) rotate(180)"/><path class="cls-5" d="M258.55,99.5a21,21,0,0,0,4,2.85,14,14,0,0,0,5.07,1.41,13.07,13.07,0,0,0,6.28-1.1c2.13-.9,4.08-2.07,6-2.75a9.46,9.46,0,0,1,5.49-.5,5.8,5.8,0,0,1,3.18,1.92,2.38,2.38,0,0,1,.63,1.22c-.07,0-.26-.42-.85-1a6.07,6.07,0,0,0-3.08-1.6,9.39,9.39,0,0,0-5.13.64c-1.88.69-3.79,1.86-6,2.8a13.29,13.29,0,0,1-6.65,1.09,13.59,13.59,0,0,1-5.25-1.63,11.66,11.66,0,0,1-2.94-2.25A3.46,3.46,0,0,1,258.55,99.5Z" transform="translate(-41.14 -57.31)"/><path class="cls-5" d="M258,106.22a21.52,21.52,0,0,0,4,2.84,13.85,13.85,0,0,0,5.07,1.41,13.11,13.11,0,0,0,6.29-1.09c2.12-.91,4.07-2.08,6-2.76a9.49,9.49,0,0,1,5.5-.5,5.82,5.82,0,0,1,3.18,1.93,2.3,2.3,0,0,1,.62,1.21c-.06,0-.25-.42-.85-1a5.84,5.84,0,0,0-3.07-1.6,9.28,9.28,0,0,0-5.13.63c-1.88.69-3.79,1.86-6,2.8a13.32,13.32,0,0,1-6.65,1.09,13.59,13.59,0,0,1-5.26-1.63,11.63,11.63,0,0,1-2.93-2.24A3.74,3.74,0,0,1,258,106.22Z" transform="translate(-41.14 -57.31)"/><path class="cls-5" d="M258.4,84.49c0-.21,6.94-.38,15.49-.38s15.49.17,15.49.38-6.93.38-15.49.38S258.4,84.7,258.4,84.49Z" transform="translate(-41.14 -57.31)"/><path class="cls-5" d="M247,76.6a3.73,3.73,0,0,0-2.2-.18,2.64,2.64,0,0,0-1.7,1.41,2.44,2.44,0,0,0,3.13,3,2.65,2.65,0,0,0,1.34-1.76,3.57,3.57,0,0,0-.27-2.18s.25.09.49.47a2.74,2.74,0,0,1,.31,1.82,3.07,3.07,0,0,1-1.56,2.28,3.08,3.08,0,0,1-4.08-3.92,3.1,3.1,0,0,1,2.22-1.66,2.78,2.78,0,0,1,1.83.25C246.89,76.36,247,76.58,247,76.6Z" transform="translate(-41.14 -57.31)"/><path class="cls-5" d="M245.37,126.72c-.22,0-.39-9.51-.39-21.24s.17-21.24.39-21.24.38,9.51.38,21.24S245.58,126.72,245.37,126.72Z" transform="translate(-41.14 -57.31)"/><rect class="cls-1" x="13.43" y="75.81" width="260.68" height="14.88"/><rect class="cls-3" x="251.35" y="75.81" width="22.76" height="14.88"/></g><g id="Character"><path class="cls-6" d="M328.36,132l-1.27,102.41c-.22,17.42,3,43.05,30.57,42.13h0c23.85-2.59,30.17-25.16,30.36-41.42.08-7.71.17-14.13.24-14.93,0,0,26.1-2.12,28.3-27.9,1.06-12.46,1.17-38.3,1-61.68a48.18,48.18,0,0,0-44.7-47.67l-2.49-.19C343.4,82.34,328,105,328.36,132Z" transform="translate(-41.14 -57.31)"/><path class="cls-7" d="M388.26,220.17s-16.34-.23-32.87-12.38c0,0,6.82,19.44,32.73,19Z" transform="translate(-41.14 -57.31)"/><path class="cls-8" d="M373.48,141.16c-.52.52-3.49-1.88-7.81-2s-7.55,2-8,1.45c-.22-.25.31-1.2,1.72-2.19a10.84,10.84,0,0,1,6.42-1.82,10.48,10.48,0,0,1,6.2,2.26C373.31,139.94,373.73,140.92,373.48,141.16Z" transform="translate(-41.14 -57.31)"/><path class="cls-8" d="M372.57,150.09a3.5,3.5,0,0,1-3.62,3.27,3.34,3.34,0,0,1-3.36-3.4,3.49,3.49,0,0,1,3.61-3.28A3.35,3.35,0,0,1,372.57,150.09Z" transform="translate(-41.14 -57.31)"/><path class="cls-8" d="M384.3,171.2c0-.23,2.49-.47,6.52-.69,1,0,2-.16,2.22-.84s-.06-1.84-.46-3l-2.43-7.93c-3.36-11.28-5.71-20.53-5.25-20.66s3.54,8.91,6.9,20.19q1.2,4.17,2.3,8c.3,1.18.86,2.54.24,4a2.59,2.59,0,0,1-1.78,1.36,6.69,6.69,0,0,1-1.73.11C386.79,171.59,384.3,171.43,384.3,171.2Z" transform="translate(-41.14 -57.31)"/><path class="cls-8" d="M371.64,124.92c-.42,1-3.88.23-8,.45s-7.54,1.12-8,.2c-.21-.44.43-1.32,1.84-2.18a13.61,13.61,0,0,1,12.22-.5C371.12,123.63,371.82,124.46,371.64,124.92Z" transform="translate(-41.14 -57.31)"/><path class="cls-8" d="M412.66,132.92c-.45.78-3.82-.09-7.91-.21s-7.47.39-7.9-.42c-.19-.39.48-1.09,1.9-1.71a14.27,14.27,0,0,1,6.05-1,14.75,14.75,0,0,1,6,1.48C412.21,131.79,412.86,132.55,412.66,132.92Z" transform="translate(-41.14 -57.31)"/><path class="cls-6" d="M329.07,151.24c-.42-.22-17.34-6.54-18.07,11.15s17.18,14.76,17.23,14.25S329.07,151.24,329.07,151.24Z" transform="translate(-41.14 -57.31)"/><path class="cls-7" d="M323.1,169.72c-.07-.06-.31.21-.84.42a3.11,3.11,0,0,1-2.31,0c-1.84-.77-3.29-3.8-3.24-7a10.16,10.16,0,0,1,1-4.37,3.57,3.57,0,0,1,2.41-2.27,1.57,1.57,0,0,1,1.79.92c.21.5.09.85.18.88s.39-.28.28-1a2,2,0,0,0-.65-1.14,2.37,2.37,0,0,0-1.69-.52,4.35,4.35,0,0,0-3.33,2.61,10.55,10.55,0,0,0-1.27,4.89c0,3.56,1.66,7,4.18,7.82a3.31,3.31,0,0,0,2.84-.36C323.06,170.15,323.16,169.76,323.1,169.72Z" transform="translate(-41.14 -57.31)"/><path class="cls-8" d="M380.12,183.44c.2-.44-3.27-1.48-5.7-4.73a19.77,19.77,0,0,1-2.45-4.62c-.51-1.28-.91-2.09-1.1-2s-.13.93.15,2.32a13.16,13.16,0,0,0,2.28,5.18,10.59,10.59,0,0,0,4.51,3.45C379.16,183.56,380.08,183.6,380.12,183.44Z" transform="translate(-41.14 -57.31)"/><path class="cls-8" d="M452,107.45a4.15,4.15,0,0,0-2-2.44c-2-1.19-4.35-1-6.6-1.07a37.25,37.25,0,0,1-19.38-5.89,86.73,86.73,0,0,0-9-10.94c-7.81-8-14.24-13.54-20.89-16.22-8.61-3.46-23-4.86-32-2.51S345.2,78,344,87.2c-5-4.25-12.58-4.22-18.71-1.75l-.15-.07c-6.82,2.43-10.7,9.64-12.71,16.6s-2.88,14.4-6.56,20.64c-.83,1.39-1.82,3.08-.85,4.5a2.62,2.62,0,0,0,2,1.07,6.86,6.86,0,0,0,4-1.48l-2.29,5.47a16.21,16.21,0,0,0,7.42-.49c1.45,6.5,3.18,13.93,4.86,18.34,2.85,0,5.46.2,7.22,1.78,2.3,2.07,3.38,5.9,7,4.8a5.74,5.74,0,0,0,3.66-3.52,100.48,100.48,0,0,0,5.66-46.29,32.11,32.11,0,0,1,10-7.21l-.31.27c7.21-2.5,15.35-5,22.19-1.58,5.3,2.63,8.42,8.13,12.39,12.52a40.5,40.5,0,0,0,28.85,13.33c.38,7.25-.23,17.51.15,24.77l6.1-11.62v.05c.5-.85.91-1.71,1.31-2.57l.14-.26v0a45.12,45.12,0,0,1,2-4.13h0c3.94,3.6,9.82-1.75,6.7-6a10.43,10.43,0,0,0-2.19-2.21,7.17,7.17,0,0,0,6.83,1.78,5.62,5.62,0,0,0,4-5.57,4.78,4.78,0,0,0-2.85-3.84,16.19,16.19,0,0,0,9.19-2C450.88,111.44,452.66,109.73,452,107.45Z" transform="translate(-41.14 -57.31)"/><path class="cls-9" d="M351.81,90.16a21.87,21.87,0,0,0-2.58,2.37,18.36,18.36,0,0,0-4,8.56,32.27,32.27,0,0,0-.66,6.55c0,2.38.18,4.92.36,7.6a67.08,67.08,0,0,1,.19,8.46,28.68,28.68,0,0,1-.58,4.46,9.23,9.23,0,0,1-1.82,4.33,3.89,3.89,0,0,1-3.64,1.22,5.76,5.76,0,0,1-3.27-1.85c-1.66-1.93-2.08-4.39-2.49-6.55l.54.06a21.45,21.45,0,0,1-3.13,5.4,7.71,7.71,0,0,1-5,2.74,5,5,0,0,1-2.66-.47,4.38,4.38,0,0,1-1.81-1.78,4.47,4.47,0,0,1-.54-2.29,3.2,3.2,0,0,1,.82-2l.28.24a16.7,16.7,0,0,1-5.54,4.16,15.33,15.33,0,0,1-1.72.67,4.71,4.71,0,0,1-.61.15,2.58,2.58,0,0,1,.58-.25c.38-.16.95-.39,1.66-.75a17.16,17.16,0,0,0,5.35-4.22l.27.25a3.33,3.33,0,0,0-.17,3.83,3.83,3.83,0,0,0,1.64,1.57,4.51,4.51,0,0,0,2.4.4,7.18,7.18,0,0,0,4.66-2.6,21.22,21.22,0,0,0,3-5.29l.37-.82.17.89c.42,2.16.86,4.52,2.37,6.27a5.26,5.26,0,0,0,2.93,1.65,3.28,3.28,0,0,0,3.1-1A8.92,8.92,0,0,0,344,128a29.76,29.76,0,0,0,.57-4.36,70.34,70.34,0,0,0-.15-8.39c-.17-2.68-.34-5.24-.31-7.64a32.18,32.18,0,0,1,.74-6.64,18.33,18.33,0,0,1,4.2-8.63A10.67,10.67,0,0,1,351.81,90.16Z" transform="translate(-41.14 -57.31)"/><path class="cls-9" d="M431.59,115.26l-.2.17-.65.47a8.34,8.34,0,0,1-1.09.7,13.19,13.19,0,0,1-1.57.83,22.8,22.8,0,0,1-11,2,29.17,29.17,0,0,1-15.56-5.74c-5.16-3.71-9.68-9.17-13.37-15.42-1.88-3.12-3.41-6.32-5.09-9.28a34.58,34.58,0,0,0-5.77-7.85,17.61,17.61,0,0,0-7.43-4.51,12.68,12.68,0,0,0-3.92-.45,14.12,14.12,0,0,0-3.58.69,15,15,0,0,0-8.29,7,17.67,17.67,0,0,0-1.33,3.87.69.69,0,0,1,0-.27c0-.22.07-.47.12-.79a12.91,12.91,0,0,1,1-2.91,14.72,14.72,0,0,1,2.89-3.92,15.11,15.11,0,0,1,5.47-3.39,14,14,0,0,1,3.7-.75,13.08,13.08,0,0,1,4.08.43,18,18,0,0,1,7.68,4.59,34.41,34.41,0,0,1,5.89,8c1.7,3,3.23,6.17,5.09,9.27,3.67,6.2,8.13,11.6,13.18,15.27A29.06,29.06,0,0,0,417.07,119,23.19,23.19,0,0,0,428,117.21,36.11,36.11,0,0,0,431.59,115.26Z" transform="translate(-41.14 -57.31)"/><path class="cls-9" d="M433.94,103.92a3.8,3.8,0,0,1-.93.65,20.84,20.84,0,0,1-2.73,1.39,27.3,27.3,0,0,1-4.34,1.42,28,28,0,0,1-11.13.36,26.57,26.57,0,0,1-4.42-1.15,19.87,19.87,0,0,1-2.82-1.21,3.84,3.84,0,0,1-1-.58c.05-.1,1.47.63,3.92,1.39a30.71,30.71,0,0,0,4.37,1,31.82,31.82,0,0,0,5.48.32,33.16,33.16,0,0,0,5.44-.67,29.83,29.83,0,0,0,4.3-1.28C432.51,104.65,433.88,103.82,433.94,103.92Z" transform="translate(-41.14 -57.31)"/><path class="cls-8" d="M412.85,142.78c-.51.52-3.49-1.87-7.81-2s-7.54,2-8,1.45c-.23-.25.31-1.2,1.71-2.19a10.83,10.83,0,0,1,6.43-1.82,10.36,10.36,0,0,1,6.19,2.25C412.68,141.57,413.11,142.55,412.85,142.78Z" transform="translate(-41.14 -57.31)"/><path class="cls-8" d="M408.45,151.34a3.51,3.51,0,0,1-3.62,3.28,3.35,3.35,0,0,1-3.36-3.41,3.49,3.49,0,0,1,3.61-3.27A3.34,3.34,0,0,1,408.45,151.34Z" transform="translate(-41.14 -57.31)"/><path class="cls-6" d="M569.56,245.63c0-7.49-7.16-7.49-7.16-7.49-2.73-3.58-5.8-2.28-5.8-2.28L545,243.68c-1.7,2.93-13,14-13,14-3.07-2.28-3.07-6.84-6.75-12.37s-12-4.89-12-4.89,6.48,14.66,7.16,23.78-5,34.56-5,34.56L548.26,308s2.07-14,5.74-15.09c4.42-1.35,6.88-7.87,6.88-7.87,4.77-9.68,14.47-23.74,15.83-30.91S569.56,245.63,569.56,245.63Z" transform="translate(-41.14 -57.31)"/><path class="cls-9" d="M325.88,229.83c20.88,13.11,41.91,18,63.21,9.55l32,8.18,31.51,210.5-184.72,1.6,9.1-48.89,22.9-175.66Z" transform="translate(-41.14 -57.31)"/><path class="cls-9" d="M421.11,247.17s24.91,10.34,34.42,28.46,24.78,69,24.78,69l28.14-51.69,52.24,13.35s-38.88,107.24-48.64,117C501.36,434,472.24,444.73,458,436.41s-17.16-39.89-17.16-39.89Z" transform="translate(-41.14 -57.31)"/><path class="cls-8" d="M422.83,335.21c-.14,0-.26-9.35-.26-20.88s.12-20.88.26-20.88.26,9.34.26,20.88S423,335.21,422.83,335.21Z" transform="translate(-41.14 -57.31)"/><path class="cls-8" d="M432.58,259.2a31.27,31.27,0,0,1-1.21,3.44c-.79,2.12-1.83,5.05-2.85,8.33s-1.81,6.3-2.36,8.49a35.21,35.21,0,0,1-.94,3.53,3.43,3.43,0,0,1,.09-1c.1-.63.26-1.53.49-2.64.46-2.21,1.21-5.25,2.23-8.55s2.12-6.23,3-8.31c.44-1,.81-1.88,1.09-2.45A3.41,3.41,0,0,1,432.58,259.2Z" transform="translate(-41.14 -57.31)"/><path class="cls-9" d="M296.52,313.54l5.78-79.31s-43.48,4-57.87,34.71c-12.12,25.85-45.59,103.62-49.18,114.26-10.51,31.22,5.91,74.15,73.61,71.66l7.72-42.44Z" transform="translate(-41.14 -57.31)"/><path class="cls-8" d="M247.83,421.26a7.07,7.07,0,0,1,.36-.76l1.1-2.13,4.15-7.8,1.38-2.59a7.83,7.83,0,0,1,2-2.55,5.36,5.36,0,0,1,3.35-1,15,15,0,0,1,3.6.58A37.13,37.13,0,0,1,271,407.8a19.78,19.78,0,0,1,3.49,2.23l.4.35a1.21,1.21,0,0,1,.34.54,4.31,4.31,0,0,1,.22,1.09,15.44,15.44,0,0,1,.05,2.15,83.32,83.32,0,0,1-.82,8.3c-.36,2.66-.77,5.22-1.18,7.65-.82,4.87-1.64,9.24-2.34,12.9s-1.28,6.58-1.7,8.67c-.19,1-.35,1.78-.46,2.36a6.43,6.43,0,0,1-.18.82,4.8,4.8,0,0,1,.08-.84c.07-.54.19-1.34.36-2.37.38-2.11.9-5.07,1.54-8.7s1.44-8.05,2.23-12.92c.39-2.43.79-5,1.15-7.64s.7-5.42.8-8.24a16.1,16.1,0,0,0,0-2.09,4.08,4.08,0,0,0-.19-1,.76.76,0,0,0-.21-.34l-.38-.33a18,18,0,0,0-3.4-2.17,36.49,36.49,0,0,0-7.16-2.74,14.49,14.49,0,0,0-3.49-.59,5,5,0,0,0-3.08.85,7.19,7.19,0,0,0-1.89,2.4c-.5.89-1,1.74-1.42,2.56l-4.29,7.73c-.5.87-.89,1.57-1.19,2.08A4.19,4.19,0,0,1,247.83,421.26Z" transform="translate(-41.14 -57.31)"/><path class="cls-8" d="M216.39,383.59a1.56,1.56,0,0,1,.51,0l1.46.06c1.27.06,3.1.17,5.36.38a69.07,69.07,0,0,1,7.9,1.15,40.55,40.55,0,0,1,9.29,3.07,36.35,36.35,0,0,1,8.16,5.39,21.71,21.71,0,0,1,5,6.27,13.86,13.86,0,0,1,1.51,5.17,9.55,9.55,0,0,1,0,1.47,1.61,1.61,0,0,1,0,.51c-.05,0,0-.71-.18-2a14.67,14.67,0,0,0-1.63-5,22.15,22.15,0,0,0-5-6.08,37.37,37.37,0,0,0-8.08-5.28,41.87,41.87,0,0,0-9.16-3.08c-2.92-.63-5.59-1-7.84-1.25s-4.07-.42-5.33-.54l-1.45-.15A1.85,1.85,0,0,1,216.39,383.59Z" transform="translate(-41.14 -57.31)"/><path class="cls-8" d="M262.92,379.58a19,19,0,0,1-1.09,3.12c-.74,1.9-1.85,4.49-3.12,7.33s-2.37,5.26-3.27,7.25a22.55,22.55,0,0,1-1.42,3,19.88,19.88,0,0,1,1.08-3.12c.75-1.9,1.86-4.49,3.13-7.33s2.37-5.25,3.27-7.25A23.39,23.39,0,0,1,262.92,379.58Z" transform="translate(-41.14 -57.31)"/><path class="cls-8" d="M287,317.16c-.15,0-.26-5-.26-11.23s.11-11.23.26-11.23.26,5,.26,11.23S287.12,317.16,287,317.16Z" transform="translate(-41.14 -57.31)"/><g class="cls-10"><path d="M255.52,407c-11.43,4-19.17,14.37-22.29,26.07-.33,1.23-.54,2.68.28,3.65a2.88,2.88,0,0,0,3.59.29,8.29,8.29,0,0,0,2.54-2.93c5.51-8.82,10.89-17,15.88-27.08Z" transform="translate(-41.14 -57.31)"/></g><g class="cls-10"><path d="M241.34,384.41c-6-3.33-12.86-4.75-19.69-5.16a29.2,29.2,0,0,0-8,.7c-3.57.75-7.68,2.55-8.46,5.11,8.21-2.57,20.3-.87,28.7,1A30.83,30.83,0,0,1,254,400.26,28.65,28.65,0,0,0,241.34,384.41Z" transform="translate(-41.14 -57.31)"/></g><path class="cls-8" d="M280.58,283.39a7.84,7.84,0,0,1-.4-1.26c-.21-.81-.56-2-1-3.41a54.9,54.9,0,0,0-11.82-20.08c-1-1.1-1.87-2-2.48-2.56a7.57,7.57,0,0,1-.9-.95,6,6,0,0,1,1,.8c.65.54,1.55,1.38,2.61,2.46a49.93,49.93,0,0,1,7.16,9.4,49.33,49.33,0,0,1,4.74,10.82,34.58,34.58,0,0,1,.88,3.48A6.11,6.11,0,0,1,280.58,283.39Z" transform="translate(-41.14 -57.31)"/><path class="cls-11" d="M296.64,459.06,248,341.75c-2.22-5.36.56-9.69,6.22-9.69h10c3.85,0,6.47-2.12,6.71-5.43l.32-4.15c.24-3.31,2.87-5.42,6.72-5.42h46.68a16.07,16.07,0,0,1,10.62,4.69l3.72,3.61a16,16,0,0,0,10.61,4.7h59.1c5.64,0,11.95,4.32,14.1,9.66l48.05,119.34Z" transform="translate(-41.14 -57.31)"/><g class="cls-10"><path d="M296.64,459.06,248,341.75c-2.22-5.36.56-9.69,6.22-9.69h10c3.85,0,6.47-2.12,6.71-5.43l.32-4.15c.24-3.31,2.87-5.42,6.72-5.42h46.68a16.07,16.07,0,0,1,10.62,4.69l3.72,3.61a16,16,0,0,0,10.61,4.7h59.1c5.64,0,11.95,4.32,14.1,9.66l48.05,119.34Z" transform="translate(-41.14 -57.31)"/></g><path class="cls-3" d="M288.55,420l-18.27-70.64c-1.2-4.65,1.85-9.31,6.09-9.31h143.2a6.53,6.53,0,0,1,6.1,5.26l26.6,106.32c1.16,4.67-.7,7.47-4.95,7.42l-144.09,0a6.53,6.53,0,0,1-6-5.22Z" transform="translate(-41.14 -57.31)"/><path class="cls-1" d="M298.39,456.06l-7.82-111.71a6.82,6.82,0,0,1,6.81-7.29h149v119Z" transform="translate(-41.14 -57.31)"/><path class="cls-5" d="M296.78,458.16l17.66-114.7a8.2,8.2,0,0,1,8.06-6.4H472.63a8.11,8.11,0,0,1,7.58,11.3l-32.42,105Z" transform="translate(-41.14 -57.31)"/><path class="cls-11" d="M296.5,459l36.42-107.47a10.78,10.78,0,0,1,10.13-7.47H497.9c5,0,8.51,5.1,6.91,10l-33.88,105Z" transform="translate(-41.14 -57.31)"/><g class="cls-10"><path d="M371.38,441.2s-5.84.26-8.54.45a79.61,79.61,0,0,1-37.6-6.67c-3.64-1.63-7.5-3.92-8.6-7.75-1.23-4.29,1.55-8.75,4.94-11.66s7.5-5,10.45-8.34,4.33-8.8,1.43-12.19l-.8.58c-2.09,5.31-7.92,7.87-12.75,10.9a45,45,0,0,0-18.9,24.7c-1.7,5.56-2.15,12,1.22,16.79,2.39,3.36,6.31,5.27,10.18,6.7,11.7,4.35,24.22,4.51,36.71,4.52,3.94,0,16.05-.16,16.05-.16,3.81-1,5.06-3,7.35-6.23C374.63,449.89,374.17,443.51,371.38,441.2Z" transform="translate(-41.14 -57.31)"/></g><path class="cls-6" d="M371.38,441.2,331,435.13l-15.67-9a7.07,7.07,0,0,1-3.6-5.69c0-.05,0-.09,0-.14a7.17,7.17,0,0,1,4.44-6.83c5-2.09,12.85-4.88,16.21-10.76,4.82-8.46,0-10.21,0-10.21L298.67,406l-23.86,16.24L270,449.27l33.29,10.87s37.1,2.1,47.33.95,10.24-5.92,10.24-5.92c1.9-.59,5.75-4,5.74-7.11,5-4.66,4.77-6.86,4.77-6.86" transform="translate(-41.14 -57.31)"/><path class="cls-7" d="M319.75,452.85a8.39,8.39,0,0,1,1.66.32c1.06.26,2.59.59,4.49,1a97.29,97.29,0,0,0,15,1.8,98.93,98.93,0,0,0,15.11-.62c1.92-.23,3.48-.45,4.55-.62a7.42,7.42,0,0,1,1.68-.19,8,8,0,0,1-1.63.45c-1.06.25-2.61.55-4.54.84a82.1,82.1,0,0,1-30.29-1.18c-1.9-.44-3.42-.86-4.46-1.19A7.63,7.63,0,0,1,319.75,452.85Z" transform="translate(-41.14 -57.31)"/><path class="cls-7" d="M323.44,446.61a8.69,8.69,0,0,1,1.68.32c1.07.26,2.63.6,4.57,1a97,97,0,0,0,15.25,1.69,104.71,104.71,0,0,0,15.35-.7c1.95-.24,3.53-.46,4.62-.64a7.62,7.62,0,0,1,1.7-.19,9.21,9.21,0,0,1-1.65.45c-1.08.26-2.65.56-4.61.86a88.27,88.27,0,0,1-15.43.91,82.69,82.69,0,0,1-15.33-1.9c-1.93-.44-3.48-.85-4.54-1.19A7.57,7.57,0,0,1,323.44,446.61Z" transform="translate(-41.14 -57.31)"/><path class="cls-1" d="M561.5,297.31l-71.72,14.16a9.14,9.14,0,0,1-10.74-7.2L459.43,205a9.15,9.15,0,0,1,7.2-10.74l45.49-9,42.37,29.34,14.21,71.95A9.14,9.14,0,0,1,561.5,297.31Z" transform="translate(-41.14 -57.31)"/><path class="cls-2" d="M512.12,185.27l5.51,27.94a8.51,8.51,0,0,0,10,6.7l26.86-5.3Z" transform="translate(-41.14 -57.31)"/><path class="cls-3" d="M518.48,215.59s1,6.85,9.14,7.55c.31,0,.62,0,.93,0,3.63-.07,27.53-.52,27.43-1s-1.49-7.51-1.49-7.51l-26.86,5.3S520.88,221,518.48,215.59Z" transform="translate(-41.14 -57.31)"/><path class="cls-8" d="M561.5,297.31l.39-.12a8.45,8.45,0,0,0,1.13-.36,9.27,9.27,0,0,0,3.7-2.7,9.09,9.09,0,0,0,2-7c-.52-2.9-1.24-6.25-2-10l-12.44-62.5.09.14L512,185.48l.19,0-26.24,5.19-13.73,2.71-3.48.69a23.2,23.2,0,0,0-3.43.81,8.87,8.87,0,0,0-5.69,9.41c.26,1.61.63,3.25.94,4.87.64,3.25,1.27,6.48,1.91,9.69q1.89,9.62,3.73,18.93c2.45,12.41,4.81,24.38,7.06,35.79q1.68,8.55,3.28,16.67.8,4.05,1.57,8c.25,1.31.51,2.61.76,3.9a21.19,21.19,0,0,0,.92,3.75,8.95,8.95,0,0,0,8.78,5.51c1.18-.09,2.38-.4,3.55-.61l13.54-2.66,40.87-8L557.62,298l2.89-.54,1-.17-1,.22-2.88.59-11.1,2.25-40.83,8.15-13.54,2.69a36.48,36.48,0,0,1-3.6.62,9.39,9.39,0,0,1-9.21-5.75,21.55,21.55,0,0,1-.95-3.84c-.25-1.28-.51-2.58-.77-3.89-.52-2.62-1.05-5.29-1.58-8q-1.6-8.1-3.31-16.66c-2.25-11.4-4.62-23.37-7.08-35.78q-1.85-9.31-3.74-18.93c-.64-3.21-1.27-6.44-1.92-9.69-.3-1.63-.67-3.23-.93-4.91a9.25,9.25,0,0,1,.76-5,9.42,9.42,0,0,1,5.26-4.93,24.79,24.79,0,0,1,3.51-.83l3.48-.69,13.73-2.71L512.07,185l.1,0,.09.06,42.36,29.36.07,0,0,.09c5.09,26,9.31,47.5,12.25,62.53.72,3.76,1.41,7.09,1.92,10a9.15,9.15,0,0,1-5.84,9.76,6.72,6.72,0,0,1-1.14.34Z" transform="translate(-41.14 -57.31)"/><path class="cls-8" d="M554.49,214.61a3.39,3.39,0,0,1-.68.19l-2,.43-7.26,1.52-10.78,2.19-6.38,1.26a8.79,8.79,0,0,1-9.13-4.43,10.11,10.11,0,0,1-1.07-3.34c-.43-2.21-.85-4.34-1.24-6.37-.78-4.06-1.49-7.71-2.08-10.81s-1-5.51-1.36-7.29c-.14-.82-.25-1.48-.34-2a3.25,3.25,0,0,1-.08-.7,4.47,4.47,0,0,1,.18.68c.12.5.26,1.16.44,2,.37,1.77.89,4.24,1.52,7.26s1.37,6.74,2.19,10.78c.4,2,.83,4.17,1.27,6.38a9.87,9.87,0,0,0,1,3.18,8.27,8.27,0,0,0,8.6,4.17l6.37-1.22,10.8-2.08L551.8,215l2-.35A3.36,3.36,0,0,1,554.49,214.61Z" transform="translate(-41.14 -57.31)"/><path class="cls-8" d="M515.69,210.47c0,.14-8.43,1.93-18.87,4s-18.95,3.63-19,3.48,8.41-1.92,18.87-4S515.66,210.33,515.69,210.47Z" transform="translate(-41.14 -57.31)"/><path class="cls-8" d="M536.39,220.86c0,.14-12.44,2.72-27.84,5.77s-27.92,5.39-27.95,5.25,12.44-2.72,27.85-5.76S536.36,220.72,536.39,220.86Z" transform="translate(-41.14 -57.31)"/><path class="cls-8" d="M539.14,234.8c0,.14-12.44,2.72-27.84,5.76s-27.92,5.4-27.95,5.26,12.44-2.72,27.85-5.77S539.12,234.66,539.14,234.8Z" transform="translate(-41.14 -57.31)"/><path class="cls-8" d="M486.1,259.76c0-.15,12.44-2.73,27.85-5.77s27.92-5.4,27.95-5.25-12.44,2.72-27.85,5.76S486.13,259.9,486.1,259.76Z" transform="translate(-41.14 -57.31)"/><path class="cls-8" d="M544.65,262.67c0,.14-12.44,2.73-27.85,5.77s-27.92,5.39-27.94,5.25,12.43-2.72,27.84-5.76S544.62,262.53,544.65,262.67Z" transform="translate(-41.14 -57.31)"/><path class="cls-8" d="M547.4,276.61c0,.14-12.44,2.72-27.84,5.76s-27.92,5.4-27.95,5.26,12.44-2.72,27.85-5.77S547.37,276.47,547.4,276.61Z" transform="translate(-41.14 -57.31)"/><rect class="cls-11" x="457.61" y="263.42" width="62.09" height="27.9" rx="4.22" transform="translate(-85.62 42.63) rotate(-11.17)"/><path class="cls-4" d="M472.19,275.66l4.7-.93c3.38-.67,6.1.91,6.72,4s-1.3,5.63-4.68,6.3l-4.7.93Zm6.23,7.47a3.27,3.27,0,1,0-1.26-6.41l-2.19.43,1.27,6.41Z" transform="translate(-41.14 -57.31)"/><path class="cls-4" d="M484.76,278.55a5.78,5.78,0,1,1,6.72,4.23A5.46,5.46,0,0,1,484.76,278.55Zm8.89-1.76a3.3,3.3,0,1,0-2.58,3.95A3.21,3.21,0,0,0,493.65,276.79Z" transform="translate(-41.14 -57.31)"/><path class="cls-4" d="M497.23,276.09a5.8,5.8,0,0,1,9.17-5.47l-1.25,1.72a3.42,3.42,0,0,0-2.84-.7,3.37,3.37,0,1,0,1.3,6.62,3.33,3.33,0,0,0,2.36-1.74l1.82,1.12a5.8,5.8,0,0,1-10.56-1.55Z" transform="translate(-41.14 -57.31)"/><path class="cls-6" d="M550.22,223.44s5.3-6.71,9.38-3,2.9,5.68-1,11.61c0,0,8.66-.46,5.88,8.44,0,0,8.63-1,7.8,6.32,0,0,6.52,6.37,3.13,10.48s-15.68,11.53-18.78,10.26-3.13-5.68-3.13-5.68-3.69-1.66-4.71-3.6.73-4.68.73-4.68-3.11-3.18-3.88-4.06.42-5,.42-5l5-4.82s-6.84,3-8.27,1.84-3-2.11-1.51-4.18,7-6.7,7-6.7Z" transform="translate(-41.14 -57.31)"/><path class="cls-7" d="M554.21,262.42a24,24,0,0,1,2.24-2.72,26.06,26.06,0,0,1,6.33-5.79,61.91,61.91,0,0,0,7.1-4.57,31.84,31.84,0,0,0,2.42-2.49,6.34,6.34,0,0,1-2,2.93c-1.59,1.58-4.25,3.11-7,4.83a31.87,31.87,0,0,0-6.34,5.48A11.16,11.16,0,0,1,554.21,262.42Z" transform="translate(-41.14 -57.31)"/><path class="cls-7" d="M549.42,254.92c-.16-.16,3-3.6,7.1-7.67,2.05-2,3.81-4,5.32-5.15a6.34,6.34,0,0,1,2.66-1.57c.06.11-.93.71-2.28,2s-3.05,3.26-5.12,5.29C553,251.91,549.58,255.08,549.42,254.92Z" transform="translate(-41.14 -57.31)"/><path class="cls-7" d="M551.05,239.73c-.16-.2,1.8-1.76,4-3.84s3.3-4.27,3.51-4.19-.61,2.62-2.93,4.78S551.16,239.89,551.05,239.73Z" transform="translate(-41.14 -57.31)"/><path class="cls-7" d="M550.22,223.41a1.67,1.67,0,0,1-.08.5c-.09.37-.21.83-.35,1.41-.33,1.3-.8,3.1-1.39,5.4v.05l0,0c-1,.88-2.12,1.89-3.33,3a29.35,29.35,0,0,0-3.7,3.94,2,2,0,0,0-.37,1.25,1.94,1.94,0,0,0,.67,1.17,12.44,12.44,0,0,0,1.21,1,1.81,1.81,0,0,0,1.38.27,26.14,26.14,0,0,0,6.72-2.08l1.6-.66L551.28,240l-4.95,4.84.08-.11a6.33,6.33,0,0,0-.26,5,14,14,0,0,0,3.92,4l.34.25-.28.32c-1.08,1.28-1.84,3.3-.43,4.55a18.71,18.71,0,0,0,4.69,3.21l-.58.32v-.13h0c.11.12-.23-.29.24.35,1.12-.52.32-.21.57-.3h0v.59a7.4,7.4,0,0,0,.08.81,5.88,5.88,0,0,0,.43,1.57,4,4,0,0,0,.88,1.32,2.45,2.45,0,0,0,1.28.74,7.85,7.85,0,0,0,3.27-.65,27.64,27.64,0,0,0,3.25-1.46,54.28,54.28,0,0,0,5.79-3.5,33.22,33.22,0,0,0,5.06-4.15A4.08,4.08,0,0,0,576,255a6.32,6.32,0,0,0-.53-2.92,16.75,16.75,0,0,0-3.41-5l-.12-.13v-.19a6.25,6.25,0,0,0-.29-2.84,4.2,4.2,0,0,0-1.75-2.06,9.19,9.19,0,0,0-5.34-1l-.49,0,.12-.49c.13-.54.28-1.08.39-1.61a8.6,8.6,0,0,0,.13-1.59,4.45,4.45,0,0,0-.9-2.82,6.48,6.48,0,0,0-5.15-2h-.58l.31-.47a48.22,48.22,0,0,0,2.79-4.55,6.76,6.76,0,0,0,.71-2.25,3.69,3.69,0,0,0-.45-2.1,9.41,9.41,0,0,0-2.72-3,4,4,0,0,0-3.24-.33,10.74,10.74,0,0,0-4,2.52c-.41.37-.7.68-.91.88s-.29.31-.31.3a1.73,1.73,0,0,1,.25-.35,10.21,10.21,0,0,1,.84-.95,12.9,12.9,0,0,1,1.56-1.37,8.06,8.06,0,0,1,2.5-1.35,4.3,4.3,0,0,1,3.54.3l.83.6.75.72a8.75,8.75,0,0,1,1.36,1.76,4.22,4.22,0,0,1,.53,2.37,7.21,7.21,0,0,1-.73,2.45,46.85,46.85,0,0,1-2.77,4.64l-.27-.47a9.18,9.18,0,0,1,3,.43,5.55,5.55,0,0,1,2.69,1.79,5,5,0,0,1,1.06,3.2,9.1,9.1,0,0,1-.12,1.73c-.11.57-.27,1.13-.41,1.7l-.37-.46a10,10,0,0,1,5.8,1.09,4.94,4.94,0,0,1,2.06,2.42,7,7,0,0,1,.36,3.21l-.12-.32a17.09,17.09,0,0,1,3.6,5.2,7.15,7.15,0,0,1,.6,3.29,5.15,5.15,0,0,1-.48,1.7,7.79,7.79,0,0,1-1,1.38,35,35,0,0,1-5.18,4.28,54,54,0,0,1-5.88,3.55,29.37,29.37,0,0,1-3.34,1.5,8.48,8.48,0,0,1-3.68.69,4.09,4.09,0,0,1-2.79-2.55,7,7,0,0,1-.49-1.77c0-.3-.07-.6-.08-.9v-.74h0c.24-.09-.55.21.56-.31.47.63.14.23.24.35v.23l-.06.6-.53-.28a19,19,0,0,1-4.92-3.4,4,4,0,0,1-.84-1.35,3.35,3.35,0,0,1-.07-1.6,6.12,6.12,0,0,1,1.36-2.64l.06.57a14.68,14.68,0,0,1-4.14-4.28,5.24,5.24,0,0,1-.45-2.94,9.1,9.1,0,0,1,.73-2.74l0-.06.05,0,5-4.8.36.55a27,27,0,0,1-6.93,2.07,2.43,2.43,0,0,1-1.79-.42,15.53,15.53,0,0,1-1.26-1.07,2.52,2.52,0,0,1-.81-1.51,2.59,2.59,0,0,1,.48-1.59,28.87,28.87,0,0,1,3.83-4c1.24-1.13,2.39-2.12,3.41-3l-.05.09c.66-2.28,1.19-4.08,1.56-5.37l.43-1.38A2.64,2.64,0,0,1,550.22,223.41Z" transform="translate(-41.14 -57.31)"/></g><g id="Files"><path class="cls-1" d="M186,277.36H124.32a7.72,7.72,0,0,1-7.72-7.72V184.23a7.72,7.72,0,0,1,7.72-7.72h39.14l30.29,31.22v61.91A7.72,7.72,0,0,1,186,277.36Z" transform="translate(-41.14 -57.31)"/><path class="cls-2" d="M163.46,176.51v24a7.18,7.18,0,0,0,7.18,7.18h23.11Z" transform="translate(-41.14 -57.31)"/><path class="cls-3" d="M163.77,202.66s-.3,5.83,6.33,7.74a7,7,0,0,0,.76.18c3,.53,22.89,4.07,22.89,3.61v-6.46H170.64S164.87,207.54,163.77,202.66Z" transform="translate(-41.14 -57.31)"/><path class="cls-8" d="M186,277.36s.46,0,1.33-.16a7.75,7.75,0,0,0,3.5-1.63,7.61,7.61,0,0,0,2.77-5.45c0-2.49,0-5.38,0-8.6,0-12.93-.05-31.43-.09-53.79l.06.15-30.31-31.19.18.07H126.07a20.74,20.74,0,0,0-3,.11,7.48,7.48,0,0,0-4.84,3,7.28,7.28,0,0,0-1.37,3.8c0,1.37,0,2.8,0,4.19v24.62c0,10.67,0,21,0,30.79,0,4.9,0,9.69,0,14.33v6.87c0,1.13,0,2.25,0,3.36a17.41,17.41,0,0,0,.15,3.25,7.52,7.52,0,0,0,6.34,6c1,.12,2,.06,3,.08H138l35.15.09,9.56.05,2.48,0,.85,0s-.29,0-.85,0l-2.48,0-9.56,0-35.15.08-11.64,0a29.51,29.51,0,0,1-3.1-.08,7.75,7.75,0,0,1-3-1.05,8,8,0,0,1-3.71-5.24,18.67,18.67,0,0,1-.16-3.33V257.63c0-4.64,0-9.43,0-14.33,0-9.82,0-20.12,0-30.79V196.22c0-2.76,0-5.53,0-8.33,0-1.41,0-2.78,0-4.23a7.88,7.88,0,0,1,1.46-4.06,8,8,0,0,1,5.19-3.23,21,21,0,0,1,3-.12h37.49l.08.08,30.26,31.24.07.07v.08c0,22.36-.07,40.86-.1,53.79,0,3.23,0,6.1-.05,8.62a7.8,7.8,0,0,1-2.87,5.53,7.7,7.7,0,0,1-3.58,1.6,6.54,6.54,0,0,1-1,.09Z" transform="translate(-41.14 -57.31)"/><path class="cls-8" d="M193.75,207.73a2.41,2.41,0,0,1-.6.06l-1.7,0-6.26.09-9.28.05h-5.49a7.43,7.43,0,0,1-5.37-2.51,7.6,7.6,0,0,1-1.51-2.68,8.79,8.79,0,0,1-.34-2.94c0-1.9,0-3.74,0-5.49,0-3.48,0-6.62.05-9.28s.06-4.71.09-6.26l0-1.7a2.41,2.41,0,0,1,.06-.6,4.13,4.13,0,0,1,0,.6c0,.44,0,1,.05,1.7,0,1.55.05,3.67.08,6.26s0,5.8.06,9.28c0,1.75,0,3.59,0,5.49a8.21,8.21,0,0,0,.32,2.79,7.06,7.06,0,0,0,1.41,2.48,6.94,6.94,0,0,0,5,2.35l5.48,0,9.28.06,6.26.08,1.7.05A4.13,4.13,0,0,1,193.75,207.73Z" transform="translate(-41.14 -57.31)"/><path class="cls-8" d="M162.29,198c0,.14-7.29.26-16.28.26s-16.27-.12-16.27-.26,7.28-.26,16.27-.26S162.29,197.82,162.29,198Z" transform="translate(-41.14 -57.31)"/><path class="cls-8" d="M177.74,210c0,.15-10.75.26-24,.26s-24-.11-24-.26,10.74-.26,24-.26S177.74,209.81,177.74,210Z" transform="translate(-41.14 -57.31)"/><path class="cls-8" d="M177.74,221.94c0,.15-10.75.26-24,.26s-24-.11-24-.26,10.74-.26,24-.26S177.74,221.8,177.74,221.94Z" transform="translate(-41.14 -57.31)"/><path class="cls-8" d="M177.74,233.93c0,.15-10.75.26-24,.26s-24-.11-24-.26,10.74-.26,24-.26S177.74,233.79,177.74,233.93Z" transform="translate(-41.14 -57.31)"/><path class="cls-8" d="M177.74,245.92c0,.15-10.75.26-24,.26s-24-.11-24-.26,10.74-.26,24-.26S177.74,245.78,177.74,245.92Z" transform="translate(-41.14 -57.31)"/><path class="cls-8" d="M177.74,257.91c0,.15-10.75.26-24,.26s-24-.11-24-.26,10.74-.26,24-.26S177.74,257.77,177.74,257.91Z" transform="translate(-41.14 -57.31)"/><rect class="cls-12" x="61.63" y="179.85" width="52.41" height="23.55" rx="4.22"/><path class="cls-4" d="M123.29,248.06c0,2-1.49,3.21-3.87,3.21h-1.79v2.46h-2.06v-8.9h3.85C121.8,244.83,123.29,246.06,123.29,248.06Zm-2.09,0c0-1-.63-1.55-1.89-1.55h-1.68v3.09h1.68C120.57,249.6,121.2,249,121.2,248.06Z" transform="translate(-41.14 -57.31)"/><path class="cls-4" d="M124.75,244.83h4c2.91,0,4.91,1.75,4.91,4.45s-2,4.45-4.91,4.45h-4Zm3.94,7.21a2.76,2.76,0,1,0,0-5.52h-1.88V252Z" transform="translate(-41.14 -57.31)"/><path class="cls-4" d="M137.3,246.48v2.35h4.12v1.66H137.3v3.24h-2.05v-8.9H142v1.65Z" transform="translate(-41.14 -57.31)"/><path class="cls-1" d="M146.73,418.09h-61A7.64,7.64,0,0,1,78,410.45V326a7.64,7.64,0,0,1,7.64-7.64H124.4l30,30.89v61.24A7.64,7.64,0,0,1,146.73,418.09Z" transform="translate(-41.14 -57.31)"/><path class="cls-2" d="M124.4,318.32V342.1a7.1,7.1,0,0,0,7.1,7.1h22.86Z" transform="translate(-41.14 -57.31)"/><path class="cls-3" d="M124.71,344.18s-.3,5.77,6.26,7.67c.25.07.5.12.75.17,3,.53,22.64,4,22.64,3.58v-6.39H131.5S125.79,349,124.71,344.18Z" transform="translate(-41.14 -57.31)"/><path class="cls-8" d="M146.73,418.09s.45,0,1.32-.16a7.67,7.67,0,0,0,3.46-1.61,7.55,7.55,0,0,0,2.73-5.39c0-2.46,0-5.32,0-8.51,0-12.8-.06-31.1-.09-53.21l.06.15-30-30.87.18.08h-37a19,19,0,0,0-2.94.11,7.35,7.35,0,0,0-6.14,6.74c0,1.35,0,2.77,0,4.14v24.36l0,30.46v24.3a17.83,17.83,0,0,0,.14,3.21,7.47,7.47,0,0,0,3.46,4.91,7.4,7.4,0,0,0,2.82,1,29.81,29.81,0,0,0,3,.08H99.2L134,418l9.45,0,2.46,0,.84,0-.84,0-2.46,0-9.45.05-34.78.08-11.52,0a28.83,28.83,0,0,1-3.06-.08,7.76,7.76,0,0,1-3-1A7.87,7.87,0,0,1,78,412a18.23,18.23,0,0,1-.16-3.29V329.57c0-1.39,0-2.75,0-4.18a7.9,7.9,0,0,1,6.58-7.22,19.24,19.24,0,0,1,3-.11H124.5l.08.07,29.94,30.91.06.07v.09c0,22.11-.07,40.41-.09,53.21,0,3.19,0,6-.05,8.52a7.66,7.66,0,0,1-6.38,7.06,6.44,6.44,0,0,1-1,.09Z" transform="translate(-41.14 -57.31)"/><path class="cls-8" d="M154.36,349.21a3.8,3.8,0,0,1-.58.05l-1.69.05-6.19.08-9.19.05h-5.43a7.37,7.37,0,0,1-6.8-5.14,8.68,8.68,0,0,1-.34-2.92c0-1.88,0-3.69,0-5.42,0-3.44,0-6.55,0-9.19s.06-4.66.08-6.19c0-.69,0-1.24,0-1.69a2.23,2.23,0,0,1,.06-.58,3.8,3.8,0,0,1,0,.58c0,.45,0,1,0,1.69,0,1.53,0,3.63.08,6.19s0,5.75.06,9.19c0,1.73,0,3.54,0,5.42a8,8,0,0,0,.32,2.76,6.87,6.87,0,0,0,6.33,4.79l5.41,0,9.19.06,6.19.08,1.69,0A2.23,2.23,0,0,1,154.36,349.21Z" transform="translate(-41.14 -57.31)"/><path class="cls-8" d="M123.24,339.54c0,.14-7.21.26-16.1.26s-16.1-.12-16.1-.26,7.2-.26,16.1-.26S123.24,339.39,123.24,339.54Z" transform="translate(-41.14 -57.31)"/><path class="cls-8" d="M138.52,351.4c0,.14-10.63.26-23.74.26S91,351.54,91,351.4s10.62-.26,23.74-.26S138.52,351.26,138.52,351.4Z" transform="translate(-41.14 -57.31)"/><path class="cls-8" d="M138.52,363.26c0,.15-10.63.26-23.74.26S91,363.41,91,363.26s10.62-.26,23.74-.26S138.52,363.12,138.52,363.26Z" transform="translate(-41.14 -57.31)"/><path class="cls-8" d="M138.52,375.12c0,.15-10.63.26-23.74.26S91,375.27,91,375.12s10.62-.26,23.74-.26S138.52,375,138.52,375.12Z" transform="translate(-41.14 -57.31)"/><path class="cls-8" d="M138.52,387c0,.14-10.63.26-23.74.26S91,387.13,91,387s10.62-.26,23.74-.26S138.52,386.84,138.52,387Z" transform="translate(-41.14 -57.31)"/><path class="cls-8" d="M138.52,398.85c0,.14-10.63.26-23.74.26S91,399,91,398.85s10.62-.26,23.74-.26S138.52,398.71,138.52,398.85Z" transform="translate(-41.14 -57.31)"/><rect class="cls-12" x="23.22" y="321.01" width="51.85" height="23.3" rx="4.22"/><path class="cls-4" d="M84.65,389.1c0,2-1.47,3.19-3.82,3.19H79.06v2.42H77v-8.8h3.81C83.18,385.91,84.65,387.13,84.65,389.1Zm-2.06,0c0-1-.63-1.53-1.87-1.53H79.06v3.06h1.66C82,390.63,82.59,390.06,82.59,389.1Z" transform="translate(-41.14 -57.31)"/><path class="cls-4" d="M93.73,389.1c0,2-1.47,3.19-3.82,3.19H88.13v2.42h-2v-8.8h3.81C92.26,385.91,93.73,387.13,93.73,389.1Zm-2.06,0c0-1-.63-1.53-1.88-1.53H88.13v3.06h1.66C91,390.63,91.67,390.06,91.67,389.1Z" transform="translate(-41.14 -57.31)"/><path class="cls-4" d="M96.76,387.57H93.94v-1.66h7.67v1.66H98.8v7.14h-2Z" transform="translate(-41.14 -57.31)"/><path class="cls-1" d="M266.76,176.72H206.1a7.59,7.59,0,0,1-7.59-7.59V85.18a7.59,7.59,0,0,1,7.59-7.59h38.47l29.78,30.69v60.85A7.59,7.59,0,0,1,266.76,176.72Z" transform="translate(-41.14 -57.31)"/><path class="cls-2" d="M244.57,77.59v23.62a7.06,7.06,0,0,0,7.06,7.06h22.72Z" transform="translate(-41.14 -57.31)"/><path class="cls-3" d="M244.88,103.29s-.3,5.73,6.22,7.61a6.74,6.74,0,0,0,.75.17c3,.53,22.5,4,22.5,3.56v-6.35H251.63S246,108.08,244.88,103.29Z" transform="translate(-41.14 -57.31)"/><path class="cls-8" d="M266.76,176.72s.45,0,1.31-.16a7.5,7.5,0,0,0,6.15-6.95c0-2.45,0-5.29,0-8.46,0-12.71-.05-30.9-.09-52.87l.06.15-29.8-30.67.18.08H207.81a18.66,18.66,0,0,0-2.91.1,7.38,7.38,0,0,0-4.76,3,7.22,7.22,0,0,0-1.34,3.73c-.05,1.35,0,2.75,0,4.12V113c0,10.5,0,20.62,0,30.27q0,7.23,0,14.09c0,2.28,0,4.54,0,6.75v3.3a17.61,17.61,0,0,0,.14,3.19,7.39,7.39,0,0,0,3.44,4.88,7.3,7.3,0,0,0,2.79,1,29.69,29.69,0,0,0,3,.08l11.45,0,34.55.08,9.39,0,2.44,0,.84,0-.84,0-2.44,0-9.39,0-34.55.08-11.45,0c-1,0-2,.05-3-.07a7.81,7.81,0,0,1-6.6-6.19,17.26,17.26,0,0,1-.16-3.28v-3.3c0-2.21,0-4.47,0-6.75q0-6.86,0-14.09c0-9.65,0-19.77,0-30.27q0-7.87,0-16V88.77c0-1.38,0-2.74,0-4.15a7.84,7.84,0,0,1,6.54-7.18,18.91,18.91,0,0,1,3-.11h36.86l.08.07,29.75,30.72.06.06v.09c0,22-.07,40.16-.09,52.87,0,3.17,0,6-.05,8.47a7.64,7.64,0,0,1-2.83,5.44,7.53,7.53,0,0,1-3.51,1.57,6.34,6.34,0,0,1-1,.09Z" transform="translate(-41.14 -57.31)"/><path class="cls-8" d="M274.35,108.28a4.07,4.07,0,0,1-.59,0l-1.67,0-6.16.08-9.12.05h-5.4a7.34,7.34,0,0,1-6.76-5.11,8.51,8.51,0,0,1-.34-2.89c0-1.87,0-3.68,0-5.4,0-3.41,0-6.5,0-9.12s.07-4.63.09-6.16c0-.68,0-1.23.05-1.67a2,2,0,0,1,0-.58,2.65,2.65,0,0,1,.05.58c0,.44,0,1,0,1.67,0,1.53.05,3.61.08,6.16s0,5.71.06,9.12c0,1.72,0,3.53,0,5.4a7.93,7.93,0,0,0,.32,2.74,6.86,6.86,0,0,0,6.29,4.75l5.38,0,9.12.06,6.16.09,1.67,0A2.36,2.36,0,0,1,274.35,108.28Z" transform="translate(-41.14 -57.31)"/><path class="cls-8" d="M243.42,98.67c0,.14-7.16.26-16,.26s-16-.12-16-.26,7.16-.26,16-.26S243.42,98.53,243.42,98.67Z" transform="translate(-41.14 -57.31)"/><path class="cls-8" d="M258.61,110.46c0,.14-10.57.26-23.6.26s-23.59-.12-23.59-.26S222,110.2,235,110.2,258.61,110.31,258.61,110.46Z" transform="translate(-41.14 -57.31)"/><path class="cls-8" d="M258.61,122.24c0,.15-10.57.26-23.6.26s-23.59-.11-23.59-.26S222,122,235,122,258.61,122.1,258.61,122.24Z" transform="translate(-41.14 -57.31)"/><path class="cls-8" d="M258.61,134c0,.14-10.57.26-23.6.26s-23.59-.12-23.59-.26,10.56-.26,23.59-.26S258.61,133.89,258.61,134Z" transform="translate(-41.14 -57.31)"/><path class="cls-8" d="M258.61,145.82c0,.14-10.57.26-23.6.26s-23.59-.12-23.59-.26,10.56-.26,23.59-.26S258.61,145.67,258.61,145.82Z" transform="translate(-41.14 -57.31)"/><path class="cls-8" d="M258.61,157.6c0,.15-10.57.27-23.6.26s-23.59-.11-23.59-.26,10.56-.26,23.59-.26S258.61,157.46,258.61,157.6Z" transform="translate(-41.14 -57.31)"/><rect class="cls-12" x="143.77" y="79.89" width="51.52" height="23.15" rx="4.22"/><path class="cls-4" d="M203,153.48l-2.12-3-2.07,3H196.5l3.24-4.45-3.07-4.3H199l2,2.84,2-2.84h2.19l-3,4.23,3.26,4.52Z" transform="translate(-41.14 -57.31)"/><path class="cls-4" d="M206.15,144.73h2v7.1h4.39v1.65h-6.41Z" transform="translate(-41.14 -57.31)"/><path class="cls-4" d="M213,152.62l.68-1.52a5.22,5.22,0,0,0,2.89.91c1.2,0,1.69-.4,1.69-.94,0-1.64-5.09-.51-5.09-3.76,0-1.49,1.2-2.73,3.69-2.73a5.92,5.92,0,0,1,3,.78l-.63,1.54a4.86,4.86,0,0,0-2.42-.69c-1.2,0-1.67.45-1.67,1,0,1.61,5.09.5,5.09,3.71,0,1.46-1.21,2.71-3.71,2.71A6.21,6.21,0,0,1,213,152.62Z" transform="translate(-41.14 -57.31)"/><path class="cls-1" d="M641.94,429.94H580.31a7.71,7.71,0,0,1-7.71-7.71V336.94a7.71,7.71,0,0,1,7.71-7.71h39.08l30.26,31.18v61.82A7.71,7.71,0,0,1,641.94,429.94Z" transform="translate(-41.14 -57.31)"/><path class="cls-2" d="M619.39,329.23v24a7.17,7.17,0,0,0,7.17,7.17h23.09Z" transform="translate(-41.14 -57.31)"/><path class="cls-3" d="M619.71,355.34s-.3,5.82,6.32,7.73a7,7,0,0,0,.76.18c3,.53,22.86,4.06,22.86,3.61v-6.45H626.56S620.8,360.21,619.71,355.34Z" transform="translate(-41.14 -57.31)"/><path class="cls-8" d="M641.94,429.94s.46,0,1.33-.16a7.67,7.67,0,0,0,6.26-7.07c0-2.48,0-5.37,0-8.59,0-12.91,0-31.39-.09-53.71l.06.15L619.22,329.4l.17.08H582.05a18.11,18.11,0,0,0-3,.11,7.38,7.38,0,0,0-4.83,3,7.28,7.28,0,0,0-1.37,3.8c0,1.36,0,2.79,0,4.18v24.58c0,10.67,0,20.95,0,30.75q0,7.35,0,14.32v6.86c0,1.13,0,2.24,0,3.35a17.41,17.41,0,0,0,.15,3.25,7.53,7.53,0,0,0,6.33,6c1,.12,2,.06,3,.08l11.63,0,35.11.08,9.54.05,2.48,0,.85,0-.85,0-2.48,0-9.54.05-35.11.08-11.63,0a29.14,29.14,0,0,1-3.08-.08,7.69,7.69,0,0,1-3-1.05,7.94,7.94,0,0,1-3.7-5.23,18.63,18.63,0,0,1-.16-3.33V417.1q0-3.37,0-6.86,0-7,0-14.32c0-9.8,0-20.08,0-30.75q0-8,0-16.26v-8.32c0-1.4,0-2.78,0-4.22a7.88,7.88,0,0,1,1.46-4.06,8,8,0,0,1,5.18-3.23,19.54,19.54,0,0,1,3-.11H619.5l.07.07,30.23,31.21.06.06v.09c0,22.32-.07,40.8-.09,53.71,0,3.23,0,6.1,0,8.61a7.82,7.82,0,0,1-2.87,5.53,7.7,7.7,0,0,1-3.57,1.59,6.54,6.54,0,0,1-1,.09Z" transform="translate(-41.14 -57.31)"/><path class="cls-8" d="M649.65,360.41a4.13,4.13,0,0,1-.6,0l-1.7.05-6.25.08-9.27.05h-5.48a7.4,7.4,0,0,1-5.36-2.52,7.32,7.32,0,0,1-1.51-2.67,8.31,8.31,0,0,1-.34-2.94c0-1.9,0-3.73,0-5.48,0-3.47,0-6.61.06-9.27s.06-4.7.08-6.25c0-.69,0-1.26.05-1.7a3.86,3.86,0,0,1,0-.59,2.27,2.27,0,0,1,.06.59l0,1.7c0,1.55,0,3.66.08,6.25s0,5.8,0,9.27c0,1.75,0,3.58,0,5.48a8.21,8.21,0,0,0,.32,2.79,7.06,7.06,0,0,0,1.41,2.48,6.94,6.94,0,0,0,5,2.35l5.47,0,9.27.06,6.25.08,1.7.05A2.41,2.41,0,0,1,649.65,360.41Z" transform="translate(-41.14 -57.31)"/><path class="cls-8" d="M618.23,350.65c0,.14-7.28.26-16.26.26s-16.25-.12-16.25-.26,7.28-.26,16.25-.26S618.23,350.5,618.23,350.65Z" transform="translate(-41.14 -57.31)"/><path class="cls-8" d="M633.66,362.62c0,.15-10.74.26-24,.26s-24-.11-24-.26,10.73-.26,24-.26S633.66,362.48,633.66,362.62Z" transform="translate(-41.14 -57.31)"/><path class="cls-8" d="M633.66,374.6c0,.14-10.74.26-24,.26s-24-.12-24-.26,10.73-.26,24-.26S633.66,374.45,633.66,374.6Z" transform="translate(-41.14 -57.31)"/><path class="cls-8" d="M633.66,386.57c0,.14-10.74.26-24,.26s-24-.12-24-.26,10.73-.26,24-.26S633.66,386.43,633.66,386.57Z" transform="translate(-41.14 -57.31)"/><path class="cls-8" d="M633.66,398.55c0,.14-10.74.26-24,.26s-24-.12-24-.26,10.73-.26,24-.26S633.66,398.4,633.66,398.55Z" transform="translate(-41.14 -57.31)"/><path class="cls-8" d="M633.66,413.31c0,.15-10.74.27-24,.27s-24-.12-24-.27,10.73-.26,24-.26S633.66,413.17,633.66,413.31Z" transform="translate(-41.14 -57.31)"/><rect class="cls-12" x="517.65" y="340" width="52.34" height="16" rx="4.22"/><path class="cls-4" d="M564.85,397.47h4c2.9,0,4.9,1.75,4.9,4.44s-2,4.44-4.9,4.44h-4Zm3.93,7.19a2.76,2.76,0,1,0,0-5.51h-1.87v5.51Z" transform="translate(-41.14 -57.31)"/><path class="cls-4" d="M574.77,401.91a4.87,4.87,0,1,1,4.87,4.6A4.61,4.61,0,0,1,574.77,401.91Zm7.65,0a2.78,2.78,0,1,0-2.78,2.84A2.71,2.71,0,0,0,582.42,401.91Z" transform="translate(-41.14 -57.31)"/><path class="cls-4" d="M585.49,401.91a4.89,4.89,0,0,1,8.48-3l-1.32,1.22a2.86,2.86,0,0,0-2.24-1,2.84,2.84,0,1,0,0,5.68,2.84,2.84,0,0,0,2.24-1.05l1.32,1.22a4.88,4.88,0,0,1-8.48-3Z" transform="translate(-41.14 -57.31)"/><path class="cls-4" d="M600.77,406.35l-2.15-3.08-2.1,3.08h-2.37l3.29-4.52-3.12-4.36h2.34l2,2.88,2-2.88h2.22l-3.1,4.29,3.31,4.59Z" transform="translate(-41.14 -57.31)"/></g><g id="Desk"><path class="cls-8" d="M708.86,459.23c0,.15-149.49.26-333.84.26s-333.88-.11-333.88-.26S190.59,459,375,459,708.86,459.09,708.86,459.23Z" transform="translate(-41.14 -57.31)"/></g></svg>