<svg id="Layer_1" data-name="Layer 1" xmlns="http://www.w3.org/2000/svg" viewBox="0 0 828.14 833.56"><defs><style>.cls-1{fill:#fff;}.cls-2{fill:#91b3fa;}.cls-3{fill:#e5ecfd;}.cls-4{fill:#100673;}.cls-5{fill:#fec4bf;}.cls-6{fill:#484af2;}.cls-7{fill:#7d97f4;}.cls-8{fill:#fe7163;}.cls-9{fill:#5860f3;}</style></defs><path class="cls-1" d="M552,673.34c12.08-.58,24.18.53,36.28.54l1,2.36c-10.28-.12-20.54-.58-30.81-.71C556.13,675.35,553.21,675.87,552,673.34Z" transform="translate(-138.53 -135.89)"/><path class="cls-1" d="M704,808.36c.9.62,1.81,1.22,2.74,1.85-.38,1.94-.3,4.31-2.44,5.27C704.13,813.1,704.09,810.73,704,808.36Z" transform="translate(-138.53 -135.89)"/><path class="cls-2" d="M577.22,136.56a74.51,74.51,0,0,1,10-.67l1,1.65a38.72,38.72,0,0,1-10.13.55C577.92,137.7,577.45,136.94,577.22,136.56Z" transform="translate(-138.53 -135.89)"/><path class="cls-2" d="M599,136.51c3.36.23,6.79.26,10.05,1.23.15.44.47,1.32.62,1.76a62.55,62.55,0,0,1-9.94-1.26C599.59,137.81,599.22,137,599,136.51Z" transform="translate(-138.53 -135.89)"/><path class="cls-2" d="M562.54,138.29c1.19-.09,4.44-1.16,3.76,1.19A60.1,60.1,0,0,1,556,141.61C556.42,138.52,560.29,139.07,562.54,138.29Z" transform="translate(-138.53 -135.89)"/><path class="cls-2" d="M620.17,140.27c3.37.37,6.86.89,9.89,2.53l.73,1.81C627.27,143.4,622.21,143.87,620.17,140.27Z" transform="translate(-138.53 -135.89)"/><path class="cls-2" d="M535.9,146.62a23.93,23.93,0,0,1,9.91-3.32c-1.94,3.59-6.8,3.58-10.18,5.12C535.7,148,535.83,147.07,535.9,146.62Z" transform="translate(-138.53 -135.89)"/><path class="cls-2" d="M640.91,147.06c3.57,1.34,8.18,2.07,10.16,5.74C647.45,151.86,642.31,151,640.91,147.06Z" transform="translate(-138.53 -135.89)"/><path class="cls-2" d="M516.63,156.6a31.27,31.27,0,0,1,8-4.68l.93.55-.15.92a56.11,56.11,0,0,1-8.83,5.1Z" transform="translate(-138.53 -135.89)"/><path class="cls-2" d="M660.14,157.17a28.51,28.51,0,0,1,9,6.14l-.7,1.11C665.41,162.59,660.83,161.07,660.14,157.17Z" transform="translate(-138.53 -135.89)"/><path class="cls-2" d="M504.7,164.72l2.48-1.07-.08,1.68c-2.32,1.95-4.66,3.9-7,5.82l-1.48-1.23C500.59,168.13,502.56,166.32,504.7,164.72Z" transform="translate(-138.53 -135.89)"/><path class="cls-2" d="M574.07,186.9c3-6.2,5.49-12.64,8.4-18.89,8.53.43,17,1.23,25.56,1.9,2.18,6.43,3.09,13.23,5.48,19.58,1.61,1.27,3.67,1.79,5.55,2.57A82.18,82.18,0,0,1,638,202.39c6.56-2.27,12.87-5.22,19.48-7.36,5.49,6.51,11.19,12.84,16.51,19.5-3,5.7-6.72,11-9.63,16.75-.93,1.52.42,3.08.88,4.53,3.54,7.19,5.55,15,7.06,22.83,6.09,3.14,13.06,4.77,18.64,8.77-.1,8.35-1.27,16.66-1.75,25-6.6,2.1-13.39,3.5-20,5.45a92.82,92.82,0,0,1-12.49,24.61c2.39,6.41,5,12.72,7.45,19.13-6.37,5.78-12.93,11.35-19.59,16.78-6-3.35-11.79-7-17.79-10.31a92.62,92.62,0,0,1-26.18,8.5c-2.41,5.05-4.6,10.21-6.71,15.4l3.85-.07c-1.29.17-2.58.39-3.85.61-.7,1-1.39,2-2.08,3-6-.44-12-1.4-18-.41a36.32,36.32,0,0,0-7.22-1.93c-2-6.46-3.47-13-5.22-19.57A99.29,99.29,0,0,1,536.5,341c-6.4,2.41-12.71,5.07-19.13,7.45-5.71-6.33-11.14-12.9-16.67-19.38,2.91-6.14,7.11-11.58,9.95-17.75-.5-2.54-1.79-4.83-2.77-7.2-2.73-6.17-4.18-12.78-5.5-19.36-6.27-2.82-12.65-5.37-18.86-8.31.64-8.55,1.15-17.12,2.13-25.63,6.58-1.81,13.23-3.39,19.81-5.24a93,93,0,0,1,11.31-22.83c1.66-1.89.33-4.19-.36-6.16-2-4.91-4-9.84-5.85-14.82,4.72-4.38,9.77-8.38,14.56-12.69a20,20,0,0,1,5.19-3.7c6.14,2.6,11.32,7,17.44,9.69a32.54,32.54,0,0,0,6.06-2.33A82.86,82.86,0,0,1,574.07,186.9Zm-11.43,31.89a58.18,58.18,0,1,0,74.06,82.83c2.14-3.69,4.3-7.5,4.88-11.8l-2.54-.16a55.23,55.23,0,1,1-33.68-70c12.9,4.42,23.53,14.09,30.23,25.85l2.36-1.8C631.77,233,622.5,224,611.16,218.86A58.6,58.6,0,0,0,562.64,218.79ZM581.91,250c-10.68,2.41-18.36,13.55-16.77,24.39A22.34,22.34,0,1,0,581.91,250Z" transform="translate(-138.53 -135.89)"/><path class="cls-2" d="M676.63,170.88a5.39,5.39,0,0,1,3.42,1,38.74,38.74,0,0,1,5.81,6.83C681.62,177.76,679.3,173.89,676.63,170.88Z" transform="translate(-138.53 -135.89)"/><path class="cls-2" d="M483.31,186.32c2.29-3,4.24-7.5,8.46-7.83C489.38,181.35,487.48,186.11,483.31,186.32Z" transform="translate(-138.53 -135.89)"/><path class="cls-2" d="M692.33,186.07a26,26,0,0,1,6.82,8.35l-.86,1C695.63,193,692.49,189.93,692.33,186.07Z" transform="translate(-138.53 -135.89)"/><path class="cls-2" d="M473.31,200.8c.83-2.4,1.8-5.2,4.67-5.74C477.11,197.41,476.26,200.43,473.31,200.8Z" transform="translate(-138.53 -135.89)"/><path class="cls-2" d="M704.31,204.07c3.21,2.07,4.19,6,5.84,9.2l-1.51.95C707,211,704.51,207.87,704.31,204.07Z" transform="translate(-138.53 -135.89)"/><path class="cls-2" d="M713.18,224c3.75,1.94,3.94,7.08,4.29,10.83C714.26,232.22,714.14,227.65,713.18,224Z" transform="translate(-138.53 -135.89)"/><path class="cls-2" d="M718.67,245.48c3.52-.59,2.34,4.12,2.71,6.27C718.83,250.81,719.32,247.62,718.67,245.48Z" transform="translate(-138.53 -135.89)"/><path class="cls-2" d="M582.72,252.87a19.43,19.43,0,0,1,23.9,20.67,19.39,19.39,0,1,1-23.9-20.67Z" transform="translate(-138.53 -135.89)"/><path class="cls-2" d="M750.41,264.47c2.49-.21,5.48-1.16,7.5.9a38.15,38.15,0,0,1-11,1.27C747.39,265,748.87,264.54,750.41,264.47Z" transform="translate(-138.53 -135.89)"/><path class="cls-2" d="M768.55,264.75c3.46.22,7.08.72,10,2.73-3.36,1.35-6.93-.31-10.23-1.1C768.39,266,768.5,265.16,768.55,264.75Z" transform="translate(-138.53 -135.89)"/><path class="cls-2" d="M727.6,273.43c.33-4.11,6.41-4.64,9.72-5.19C735,271.36,730.91,271.9,727.6,273.43Z" transform="translate(-138.53 -135.89)"/><path class="cls-2" d="M788.5,270.49c2.92,1.85,7.8,2.45,8.44,6.45a93,93,0,0,1-9.17-4.69Z" transform="translate(-138.53 -135.89)"/><path class="cls-2" d="M710.58,285.59c.41-4,4.74-6.89,8.41-7.58C717,281.32,713.75,283.55,710.58,285.59Z" transform="translate(-138.53 -135.89)"/><path class="cls-2" d="M752.16,290.35q1.89-4.82,4.13-9.47l13.05,1q1.45,5,2.69,10.12a58.56,58.56,0,0,1,12.68,6.54c3.35-1.23,6.68-2.55,10-3.75,2.83,3.38,5.8,6.66,8.47,10.18-1.73,2.91-3.46,5.82-5.23,8.7a69.24,69.24,0,0,1,4.37,13.78q4.7,2.16,9.49,4.09c0,4.47-.47,8.93-.89,13.38-3.4.92-6.8,1.81-10.19,2.73-1.43,4.6-4.15,8.6-6.21,12.9.92,3.36,2.56,6.48,3.48,9.85-3.34,2.52-6.23,5.61-9.68,8-3.41-.6-5.92-3.45-9.12-4.65-4.6,1.23-8.93,3.49-13.72,4.1-1.51,3.15-2.91,6.36-4.21,9.6-4.5-.11-9-.49-13.43-1q-1.27-5-2.5-9.93a66.17,66.17,0,0,1-12.85-6.62c-3.28,1.31-6.56,2.58-9.87,3.78-2.86-3.33-5.75-6.63-8.49-10.06,1.74-3,3.5-6,5.25-9.07A58.43,58.43,0,0,1,715,340.94a83,83,0,0,0-10.48-4.2,61.24,61.24,0,0,0,1.92-13.27c3.35-1,6.89-1.42,10.07-2.9,2-4.19,3.67-8.56,6.5-12.29-1.13-3.34-2.41-6.62-3.78-9.86a99.35,99.35,0,0,1,10-8.53c3.22,1.34,6.07,3.42,9.15,5.07A69.5,69.5,0,0,1,752.16,290.35ZM741,309.1a30.61,30.61,0,0,0-13.06,26.48c.31,14,11.62,26.82,25.53,28.82,14.48,2.77,29.86-6.69,34.13-20.76a2.7,2.7,0,0,0-3.95,1.9,27.34,27.34,0,0,1-13.37,13.67c-11.25,5.56-26,2.07-33.54-7.91-8.05-9.89-7.75-25.33.63-34.93a27.78,27.78,0,0,1,31-7.93c6.4,2.23,11.1,7.35,14.84,12.78l2.18-1.76c-3.24-5.22-7.62-9.88-13.21-12.58A30.85,30.85,0,0,0,741,309.1ZM753.86,323a12.06,12.06,0,0,0-7.3,11.51c-.13,6.72,6.33,12.57,13,11.83,7.2-.19,12.86-7.86,11-14.81C769.21,324.31,760.53,319.84,753.86,323Z" transform="translate(-138.53 -135.89)"/><path class="cls-2" d="M805.24,282c3.06,2.16,7,4.68,7.22,8.8C809.6,288.43,805.55,286,805.24,282Z" transform="translate(-138.53 -135.89)"/><path class="cls-2" d="M702.65,292.6l1.64,1c-1,1.57-2.06,3.15-3.08,4.73l-1.73-.93C700.53,295.83,701.58,294.21,702.65,292.6Z" transform="translate(-138.53 -135.89)"/><path class="cls-2" d="M456.65,296.14a16.22,16.22,0,0,1,2,6.92C455.65,302.41,455.4,298.42,456.65,296.14Z" transform="translate(-138.53 -135.89)"/><path class="cls-2" d="M817.81,299.61l1.56-1.09a43,43,0,0,1,4.45,9.46C820,307.35,819.75,302.33,817.81,299.61Z" transform="translate(-138.53 -135.89)"/><path class="cls-2" d="M460.17,312.72c3.45,2,3.95,6.69,4.48,10.31C461.3,320.8,460.94,316.31,460.17,312.72Z" transform="translate(-138.53 -135.89)"/><path class="cls-2" d="M825.37,318c3.16.62,2.84,4.6,2.14,7C825.65,323.09,825.66,320.37,825.37,318Z" transform="translate(-138.53 -135.89)"/><path class="cls-2" d="M754.74,325.87c6.25-3.37,14.41,2.68,13.13,9.62-.66,6.67-9.29,10.33-14.57,6.25C747.64,338,748.49,328.52,754.74,325.87Z" transform="translate(-138.53 -135.89)"/><path class="cls-2" d="M468.06,331.81c3.67,1.45,4.51,5.8,6.34,8.9C470.22,340.17,469.4,335,468.06,331.81Z" transform="translate(-138.53 -135.89)"/><path class="cls-2" d="M693.77,351.79a27.53,27.53,0,0,1,5.7-6.43c-.05,3.81-3.25,6.35-5.28,9.24a10.35,10.35,0,0,1-3.6-8.24C693.19,346.79,693,349.88,693.77,351.79Z" transform="translate(-138.53 -135.89)"/><path class="cls-2" d="M479.32,349c3.16,2.09,5.16,5.39,7.13,8.53C482.52,357.08,479.83,352.66,479.32,349Z" transform="translate(-138.53 -135.89)"/><path class="cls-2" d="M679.25,370c.26-4,4.47-6.13,7.17-8.58C686.42,365.52,682.21,367.86,679.25,370Z" transform="translate(-138.53 -135.89)"/><path class="cls-2" d="M696.47,362.24c2.51,2.43,4,5.65,5.67,8.65l-1,1.51C698.94,369.42,696.05,366.24,696.47,362.24Z" transform="translate(-138.53 -135.89)"/><path class="cls-2" d="M817.08,370.12c1-2.15,1.4-5.86,4.56-5.67C820.65,366.67,820.11,370,817.08,370.12Z" transform="translate(-138.53 -135.89)"/><path class="cls-2" d="M492.11,365.34c3.95.36,6.85,4.06,8.61,7.35C496.88,371.7,494.32,368.4,492.11,365.34Z" transform="translate(-138.53 -135.89)"/><path class="cls-2" d="M508.26,378.17c3.35,1.65,6.93,3.39,9,6.67C513.63,384.11,509.19,382.05,508.26,378.17Z" transform="translate(-138.53 -135.89)"/><path class="cls-2" d="M803.38,385.63c2.58-2.69,4.92-5.74,8.27-7.53-.33,3.22-3.08,5.26-5.31,7.25C805.56,386.33,804.35,386.12,803.38,385.63Z" transform="translate(-138.53 -135.89)"/><path class="cls-2" d="M708.1,379.9c3.49,1.66,6,4.68,8.5,7.55C712.62,387.47,709,383.57,708.1,379.9Z" transform="translate(-138.53 -135.89)"/><path class="cls-2" d="M644.83,392.89c1.54-3.3,5.52-4.28,8.6-5.63,2.21-.17.11,2.16-.7,2.44A21.1,21.1,0,0,1,644.83,392.89Z" transform="translate(-138.53 -135.89)"/><path class="cls-2" d="M786,398c1.14-3.63,5.64-4.31,8.62-6l.77,1.37A24.92,24.92,0,0,1,786,398Z" transform="translate(-138.53 -135.89)"/><path class="cls-2" d="M724.21,393.52a15.12,15.12,0,0,1,10.53,4.93A14.82,14.82,0,0,1,724.21,393.52Z" transform="translate(-138.53 -135.89)"/><path class="cls-2" d="M765.37,403.22c1.83-3.48,6.79-2.29,10.06-3.38,0,.53,0,1.6-.07,2.14A59.05,59.05,0,0,1,765.37,403.22Z" transform="translate(-138.53 -135.89)"/><path class="cls-2" d="M744.18,400.66c3.32.11,6.74.14,10,1.15.22.42.66,1.26.87,1.68C751.52,402.81,746.33,404.18,744.18,400.66Z" transform="translate(-138.53 -135.89)"/><path class="cls-2" d="M564.23,402.53a43.86,43.86,0,0,1,10.33.92c0,.48-.13,1.43-.18,1.9C571.05,404.59,566.46,405.72,564.23,402.53Z" transform="translate(-138.53 -135.89)"/><path class="cls-2" d="M585.58,404.05c3.21,0,6.42-.07,9.64-.07-.06.49-.17,1.48-.23,2-3.12.1-6.23.15-9.35.17C585.63,405.6,585.59,404.57,585.58,404.05Z" transform="translate(-138.53 -135.89)"/><path class="cls-2" d="M236.72,468.77c2.3-.89,4.5,1.05,5.86,2.73,2.12,2.8,3.67,6.79,2.16,10.21-2.07,3.05-6,.21-7.44-2.07C235.26,476.68,233.2,471.3,236.72,468.77Z" transform="translate(-138.53 -135.89)"/><path class="cls-2" d="M194.17,588.45a122,122,0,0,1,10-19.61c4.74,3.3,9.58,7.24,15.76,6.85q-3.72,5.74-7.23,11.61c-5,1.24-9.92,3.15-15.11,3.24A35.11,35.11,0,0,1,194.17,588.45Z" transform="translate(-138.53 -135.89)"/><path class="cls-2" d="M142.69,677.23a99,99,0,0,1,7.46-7.59c.1,2.83-.39,6.21,1.86,8.39,2.52,2.38,6.34,2,9.5,1.54,9.35-1.67,17.84-6.16,26.23-10.42-11.25,9.79-26.22,15.91-41.24,15.1-3.51-.1-4.27-4.06-4.8-6.78-.07-.43-.2-1.3-.27-1.73l.7.81Z" transform="translate(-138.53 -135.89)"/><path class="cls-2" d="M278.77,683.81a26.66,26.66,0,0,1,7.67-.42c54.35,2.18,108.7,4.13,163,6.3,6,.1,10.94,5.88,10.65,11.8q0,105,0,210c.3,6.22-5.22,12.09-11.54,11.75-54.68.08-109.36,0-164,.06-3.24,0-6.84-.19-9.36-2.51a11.52,11.52,0,0,1-4.1-9.33q0-108,0-216C270.65,690.44,273.73,685.21,278.77,683.81ZM304.05,769c-.16,4.64-.16,9.3,0,14q56.46.3,113,0,.18-7,0-13.91C379.33,768.85,341.69,768.92,304.05,769Zm0,23.82q0,6.64,0,13.28c37.7.14,75.4,0,113.1.08q0-6.72,0-13.43C379.48,792.89,341.78,792.75,304.08,792.85Zm.76,23.95q0,6.68,0,13.37c37.71,0,75.42.06,113.12,0,0-4.43,0-8.84,0-13.26-17.18-1-34.36.13-51.55-.06-7,.21-14-.68-21,0-5.34-.81-10.67-.08-16,0C321.25,816,313.05,817.25,304.84,816.8Zm.21,23.18c.08,4.57-.4,9.19.23,13.75,9.05.64,18.17.06,27.25.26,28.49,0,57,.1,85.46-.08.23-4.67.18-9.34.07-14C380.39,839.81,342.72,839.67,305.05,840Z" transform="translate(-138.53 -135.89)"/><path class="cls-3" d="M519.9,162c49.35-7.38,100-4.83,148.61,6.41,2.7.75,5.75.86,8.12,2.45,2.67,3,5,6.88,9.23,7.79a38.74,38.74,0,0,0-5.81-6.83c6.05.66,11.77,2.85,17.57,4.57a371.73,371.73,0,0,1,96.13,45.86A353.46,353.46,0,0,1,878,301,349.75,349.75,0,0,1,928,388.08c24.36,62.14,31.95,130.32,25,196.54a450.06,450.06,0,0,1-20,93.13,107,107,0,0,0-50.67-27.46c21.25-58.24,25.49-121.57,19-182.87A11.77,11.77,0,0,0,890.37,457c-37.07-2.38-74.24-8.11-109.34-20.57a240.79,240.79,0,0,0-90.58-53.8c-6.43-2.15-13-3.76-19.53-5.57-2.5,1.92-5,3.91-7.64,5.59,1.35-2.58,3.83-4.14,6.17-5.72a236.38,236.38,0,0,0-71.8-5l-3.85.07c2.11-5.19,4.3-10.35,6.71-15.4a92.62,92.62,0,0,0,26.18-8.5c6,3.32,11.81,7,17.79,10.31,6.66-5.43,13.22-11,19.59-16.78-2.41-6.41-5.06-12.72-7.45-19.13a92.82,92.82,0,0,0,12.49-24.61c6.64-1.95,13.43-3.35,20-5.45.48-8.34,1.65-16.65,1.75-25-5.58-4-12.55-5.63-18.64-8.77-1.51-7.84-3.52-15.64-7.06-22.83-.46-1.45-1.81-3-.88-4.53,2.91-5.74,6.62-11.05,9.63-16.75-5.32-6.66-11-13-16.51-19.5-6.61,2.14-12.92,5.09-19.48,7.36a82.18,82.18,0,0,0-18.89-10.33c-1.88-.78-3.94-1.3-5.55-2.57-2.39-6.35-3.3-13.15-5.48-19.58-8.52-.67-17-1.47-25.56-1.9-2.91,6.25-5.4,12.69-8.4,18.89a82.86,82.86,0,0,0-20.26,5.86,32.54,32.54,0,0,1-6.06,2.33c-6.12-2.64-11.3-7.09-17.44-9.69a20,20,0,0,0-5.19,3.7c-4.79,4.31-9.84,8.31-14.56,12.69,1.83,5,3.81,9.91,5.85,14.82.69,2,2,4.27.36,6.16a93,93,0,0,0-11.31,22.83c-6.58,1.85-13.23,3.43-19.81,5.24-1,8.51-1.49,17.08-2.13,25.63,6.21,2.94,12.59,5.49,18.86,8.31,1.32,6.58,2.77,13.19,5.5,19.36,1,2.37,2.27,4.66,2.77,7.2-2.84,6.17-7,11.61-9.95,17.75,5.53,6.48,11,13.05,16.67,19.38,6.42-2.38,12.73-5,19.13-7.45a99.29,99.29,0,0,0,24.77,12.62c1.75,6.52,3.24,13.11,5.22,19.57a36.32,36.32,0,0,1,7.22,1.93A238.73,238.73,0,0,0,466.22,425.3c-7.7-13.69-21.18-24.51-36.67-27.82-1.47-.73-3.46-1.23-3.76-3.11-1.38-4.31-2.65-8.67-3.84-13-.87-2.88,1.1-5.53,2.45-7.91,7-7.42,8.61-18.05,9-27.86,2.62-2.24,5.76-4.49,6.54-8.08s-1.83-7-4.77-8.74c-2.54-1.64-5.62-.54-8.35-.17.11-8.84-9.33-14.83-17.45-13.8-4.66.64-8.16,4.09-11.13,7.44-2.6-2-5.21-4.43-8.64-4.67-5-.47-10.59,1.28-13.32,5.7-2.14,3.35-2,7.48-2.43,11.29-4-.41-8.59-1.37-12.25,1-2.91,1.87-3.34,5.81-2.62,8.93a20.64,20.64,0,0,0,7.46,12c2.72,2,6.26,2,9.5,2,1.84,9.33,4.41,18.87,10,26.72,2.4,3.58,6.49,5.26,10.36,6.74.07,2.22.1,4.44.18,6.67l-2.08.68c-5.39,2.17-12.33,2.14-16,7.21-7.91,9.86-15.39,20.08-22.51,30.53-2.19,3.47-4.89,6.76-6.14,10.72-.48,3.58,3.7,4.87,5.86,6.86a122.62,122.62,0,0,1-28.72,48,483.46,483.46,0,0,0-40.05-36.34c-10-7.9-20.23-15.56-31.44-21.63-.88-.51-1.77-1-2.67-1.46a84.48,84.48,0,0,0-24.48-9.43c-1.47,2.4-2.9,4.82-4.28,7.28a80,80,0,0,0-9.54-.44,4.62,4.62,0,0,0-3.79,5.94c1.76,6.16,4.34,12.06,6.17,18.21-5,28,2.32,56.68,13.78,82.2-10,5.52-21.29,11.15-26.46,22a122,122,0,0,0-10,19.61,160.55,160.55,0,0,0-29.45,33.1c-1.54-11.93-1.17-24-1.84-36,.42-16.71.83-33.45,2.72-50.07,5.13-48.68,18-96.64,38.88-140.95,20.09-42.61,47.41-82,81.22-114.82,4.2-4.16,8.36-8.36,12.68-12.39,21-18.7,43.48-35.91,67.78-50.13a425.44,425.44,0,0,1,102-44.13c12.07-3.24,24.19-6.49,36.57-8.35-2.14,1.6-4.11,3.41-6.08,5.2l1.48,1.23c2.34-1.92,4.68-3.87,7-5.82l.08-1.68A104.83,104.83,0,0,0,519.9,162Zm-36.59,24.3c4.17-.21,6.07-5,8.46-7.83C487.55,178.82,485.6,183.33,483.31,186.32Zm209-.25c.16,3.86,3.3,6.89,6,9.38l.86-1A26,26,0,0,0,692.33,186.07Zm-219,14.73c2.95-.37,3.8-3.39,4.67-5.74C475.11,195.6,474.14,198.4,473.31,200.8Zm231,3.27c.2,3.8,2.66,6.88,4.33,10.15l1.51-.95C708.5,210,707.52,206.14,704.31,204.07ZM713.18,224c1,3.69,1.08,8.26,4.29,10.83C717.12,231,716.93,225.9,713.18,224Zm5.49,21.52c.65,2.14.16,5.33,2.71,6.27C721,249.6,722.19,244.89,718.67,245.48Zm31.74,19c-1.54.07-3,.55-3.55,2.17a38.15,38.15,0,0,0,11-1.27C755.89,263.31,752.9,264.26,750.41,264.47Zm18.14.28c0,.41-.16,1.23-.21,1.63,3.3.79,6.87,2.45,10.23,1.1C775.63,265.47,772,265,768.55,264.75Zm-40.95,8.68c3.31-1.53,7.44-2.07,9.72-5.19C734,268.79,727.93,269.32,727.6,273.43Zm60.9-2.94-.73,1.76a93,93,0,0,0,9.17,4.69C796.3,272.94,791.42,272.34,788.5,270.49Zm-77.92,15.1c3.17-2,6.43-4.27,8.41-7.58C715.32,278.7,711,281.63,710.58,285.59Zm41.58,4.76A69.5,69.5,0,0,0,738.43,295c-3.08-1.65-5.93-3.73-9.15-5.07a99.35,99.35,0,0,0-10,8.53c1.37,3.24,2.65,6.52,3.78,9.86-2.83,3.73-4.51,8.1-6.5,12.29-3.18,1.48-6.72,1.94-10.07,2.9a61.24,61.24,0,0,1-1.92,13.27,83,83,0,0,1,10.48,4.2,58.43,58.43,0,0,0,4.43,13.57c-1.75,3-3.51,6-5.25,9.07,2.74,3.43,5.63,6.73,8.49,10.06,3.31-1.2,6.59-2.47,9.87-3.78a66.17,66.17,0,0,0,12.85,6.62q1.23,5,2.5,9.93c4.46.54,8.93.92,13.43,1,1.3-3.24,2.7-6.45,4.21-9.6,4.79-.61,9.12-2.87,13.72-4.1,3.2,1.2,5.71,4.05,9.12,4.65,3.45-2.37,6.34-5.46,9.68-8-.92-3.37-2.56-6.49-3.48-9.85,2.06-4.3,4.78-8.3,6.21-12.9,3.39-.92,6.79-1.81,10.19-2.73.42-4.45.88-8.91.89-13.38q-4.8-1.92-9.49-4.09A69.24,69.24,0,0,0,798,313.68c1.77-2.88,3.5-5.79,5.23-8.7-2.67-3.52-5.64-6.8-8.47-10.18-3.37,1.2-6.7,2.52-10,3.75A58.56,58.56,0,0,0,772,292q-1.24-5.08-2.69-10.12l-13.05-1Q754.06,285.53,752.16,290.35ZM805.24,282c.31,4,4.36,6.43,7.22,8.8C812.2,286.68,808.3,284.16,805.24,282ZM702.65,292.6c-1.07,1.61-2.12,3.23-3.17,4.85l1.73.93c1-1.58,2-3.16,3.08-4.73Zm-246,3.54c-1.25,2.28-1,6.27,2,6.92A16.22,16.22,0,0,0,456.65,296.14Zm361.16,3.47c1.94,2.72,2.18,7.74,6,8.37a43,43,0,0,0-4.45-9.46ZM460.17,312.72c.77,3.59,1.13,8.08,4.48,10.31C464.12,319.41,463.62,314.75,460.17,312.72ZM825.37,318c.29,2.41.28,5.13,2.14,7C828.21,322.56,828.53,318.58,825.37,318ZM468.06,331.81c1.34,3.22,2.16,8.36,6.34,8.9C472.57,337.61,471.73,333.26,468.06,331.81Zm225.71,20c-.8-1.91-.58-5-3.18-5.43a10.35,10.35,0,0,0,3.6,8.24c2-2.89,5.23-5.43,5.28-9.24A27.53,27.53,0,0,0,693.77,351.79ZM479.32,349c.51,3.64,3.2,8.06,7.13,8.53C484.48,354.41,482.48,351.11,479.32,349Zm199.93,21c3-2.12,7.17-4.46,7.17-8.58C683.72,363.85,679.51,366,679.25,370Zm17.22-7.74c-.42,4,2.47,7.18,4.7,10.16l1-1.51C700.44,367.89,699,364.67,696.47,362.24Zm120.61,7.88c3-.14,3.57-3.45,4.56-5.67C818.48,364.26,818.08,368,817.08,370.12Zm-325-4.78c2.21,3.06,4.77,6.36,8.61,7.35C499,369.4,496.06,365.7,492.11,365.34Zm16.15,12.83c.93,3.88,5.37,5.94,9,6.67C515.19,381.56,511.61,379.82,508.26,378.17Zm295.12,7.46c1,.49,2.18.7,3-.28,2.23-2,5-4,5.31-7.25C808.3,379.89,806,382.94,803.38,385.63ZM708.1,379.9c.94,3.67,4.52,7.57,8.5,7.55C714.12,384.58,711.59,381.56,708.1,379.9ZM786,398a24.92,24.92,0,0,0,9.39-4.61l-.77-1.37C791.61,393.67,787.11,394.35,786,398Zm-61.76-4.46a14.82,14.82,0,0,0,10.53,4.93A15.12,15.12,0,0,0,724.21,393.52Zm41.16,9.7a59.05,59.05,0,0,0,10-1.24c0-.54.06-1.61.07-2.14C772.16,400.93,767.2,399.74,765.37,403.22Zm-21.19-2.56c2.15,3.52,7.34,2.15,10.82,2.83-.21-.42-.65-1.26-.87-1.68C750.92,400.8,747.5,400.77,744.18,400.66Z" transform="translate(-138.53 -135.89)"/><path class="cls-3" d="M562.64,218.79a58.6,58.6,0,0,1,48.52.07C622.5,224,631.77,233,638,243.76l-2.36,1.8c-6.7-11.76-17.33-21.43-30.23-25.85a55.19,55.19,0,1,0,33.68,70l2.54.16c-.58,4.3-2.74,8.11-4.88,11.8a58.18,58.18,0,1,1-74.06-82.83Z" transform="translate(-138.53 -135.89)"/><path class="cls-3" d="M581.91,250a22.36,22.36,0,1,1-16.77,24.39C563.55,263.58,571.23,252.44,581.91,250Zm.81,2.84a19.43,19.43,0,1,0,16.74,3.76A19.44,19.44,0,0,0,582.72,252.87Z" transform="translate(-138.53 -135.89)"/><path class="cls-3" d="M741,309.1a30.85,30.85,0,0,1,31.23-2.22c5.59,2.7,10,7.36,13.21,12.58l-2.18,1.76c-3.74-5.43-8.44-10.55-14.84-12.78a27.78,27.78,0,0,0-31,7.93c-8.38,9.6-8.68,25-.63,34.93,7.59,10,22.29,13.47,33.54,7.91a27.34,27.34,0,0,0,13.37-13.67,2.7,2.7,0,0,1,3.95-1.9c-4.27,14.07-19.65,23.53-34.13,20.76-13.91-2-25.22-14.78-25.53-28.82A30.61,30.61,0,0,1,741,309.1Z" transform="translate(-138.53 -135.89)"/><path class="cls-3" d="M753.86,323c6.67-3.17,15.35,1.3,16.73,8.53,1.84,6.95-3.82,14.62-11,14.81-6.68.74-13.14-5.11-13-11.83A12.06,12.06,0,0,1,753.86,323Zm.88,2.86c-6.25,2.65-7.1,12.14-1.44,15.87,5.28,4.08,13.91.42,14.57-6.25C769.15,328.55,761,322.5,754.74,325.87Z" transform="translate(-138.53 -135.89)"/><path class="cls-3" d="M348.16,508.83c4.63-5,9.38-9.91,13.42-15.41-.57,3.28-1.34,6.52-2.14,9.76A113.07,113.07,0,0,1,348.16,508.83Z" transform="translate(-138.53 -135.89)"/><path class="cls-3" d="M276.67,511.41c3.95,3.05,7.61,6.45,11.31,9.81-.94,1-1.88,2-2.81,2.94-1.63-.13-3.26-.26-4.89-.37-1.07-3.47-2.15-6.94-3.12-10.43Z" transform="translate(-138.53 -135.89)"/><path class="cls-3" d="M248.09,533.35l1.25.08,2.3.28,2.26.81a29.44,29.44,0,0,1-5.57,6.07C248.2,538.17,248.08,535.76,248.09,533.35Z" transform="translate(-138.53 -135.89)"/><path class="cls-3" d="M546.86,696.86A12.26,12.26,0,0,1,557.48,691c5.34,0,10.69-.12,16,.06a12.32,12.32,0,0,1,11.25,10.6c.35,3.73.08,7.49.14,11.23a8.36,8.36,0,0,1-6.09.52c0-3.34.24-6.69,0-10s-2.91-6.21-6.21-6.23q-7.53-.13-15.07,0a6.55,6.55,0,0,0-6.34,6.26c-.18,3.3,0,6.62,0,9.94a8.57,8.57,0,0,1-6.14-.38C545.34,707.61,543.86,701.7,546.86,696.86Z" transform="translate(-138.53 -135.89)"/><path class="cls-3" d="M539.87,720.47c-.53-3.1,3-4.62,5.57-4.33,13.37.06,26.74,0,40.11,0,1.94-.23,3.2,1.46,4.61,2.5-.08,12.19,0,24.37,0,36.56-1.3,1.11-2.75,2.16-4.56,1.9-14.52,0-29,.06-43.57-.06l-2.08-2C539.84,743.55,539.87,732,539.87,720.47Zm17,8.73c-.39,3.69.52,7.25,3.37,9.77,0,3.53-2.5,7.37-.78,10.69,3.8,0,8.45,1.4,11.71-.92-.09-3.42-1.21-6.71-1.43-10.12q1.62-1.92,3.23-3.85c0-1.89,0-3.76,0-5.63a45.54,45.54,0,0,0-5.16-5.14c-1.89,0-3.78,0-5.66,0A33.06,33.06,0,0,0,556.88,729.2Z" transform="translate(-138.53 -135.89)"/><path class="cls-3" d="M304.05,769c37.64-.11,75.28-.18,112.92,0q.18,6.95,0,13.91-56.48.38-113,0C303.89,778.33,303.89,773.67,304.05,769Z" transform="translate(-138.53 -135.89)"/><path class="cls-3" d="M496.87,769c52.74,0,105.47.07,158.21,0,1.35,1.3,2.71,2.6,4.11,3.88-.05,3.4-.08,6.81-.11,10.22-54.07.07-108.14,0-162.21,0Q496.86,776,496.87,769Z" transform="translate(-138.53 -135.89)"/><path class="cls-3" d="M304.08,792.85c37.7-.1,75.4,0,113.11-.07q0,6.71,0,13.43c-37.7-.1-75.4.06-113.1-.08Q304.09,799.49,304.08,792.85Z" transform="translate(-138.53 -135.89)"/><path class="cls-3" d="M497,792.86q81.46,0,162.91,0,0,6.6,0,13.22-81.44.07-162.89,0Q497,799.5,497,792.86Z" transform="translate(-138.53 -135.89)"/><path class="cls-3" d="M304.84,816.8c8.21.45,16.41-.84,24.61.07,5.34-.1,10.67-.83,16,0,7-.71,14,.18,21,0,17.19.19,34.37-.91,51.55.06,0,4.42,0,8.83,0,13.26-37.7.09-75.41,0-113.12,0Q304.83,823.48,304.84,816.8Z" transform="translate(-138.53 -135.89)"/><path class="cls-3" d="M497,816.85q48.1,0,96.21,0c0,4.44,0,8.87,0,13.32-32,0-64.11,0-96.17,0Q497,823.49,497,816.85Z" transform="translate(-138.53 -135.89)"/><path class="cls-3" d="M305.05,840c37.67-.31,75.34-.17,113-.08.11,4.67.16,9.34-.07,14-28.49.18-57,0-85.46.08-9.08-.2-18.2.38-27.25-.26C304.65,849.17,305.13,844.55,305.05,840Z" transform="translate(-138.53 -135.89)"/><path class="cls-3" d="M722.29,867.77c25.82.05,51.63,0,77.45,0-5.55,5.51-12.14,9.8-18.29,14.59a468,468,0,0,1-59.94,37.08C721.76,902.23,722,885,722.29,867.77Z" transform="translate(-138.53 -135.89)"/><path class="cls-3" d="M464.28,964.78q57.71,0,115.4,0c-14,2.91-28.3,3.51-42.51,4.28-18.61,1-37.25,0-55.78-1.75A124.72,124.72,0,0,1,464.28,964.78Z" transform="translate(-138.53 -135.89)"/><path class="cls-4" d="M398.27,322.22c3-3.35,6.47-6.8,11.13-7.44,8.12-1,17.56,5,17.45,13.8,2.73-.37,5.81-1.47,8.35.17,2.94,1.76,5.54,5.14,4.77,8.74s-3.92,5.84-6.54,8.08c-.42,9.81-2,20.44-9,27.86a55.27,55.27,0,0,1-4.14-8.64c2.9-3.67,6.18-10.21,1.14-13.58-5.14-1.38-5.26,6.12-8.9,8.13a95.77,95.77,0,0,0-4-13.59,29.08,29.08,0,0,0-7.95,2.86c-7.78,4.15-15.75,8.5-24.59,9.78-3.24.07-6.78.05-9.5-2a20.64,20.64,0,0,1-7.46-12c-.72-3.12-.29-7.06,2.62-8.93,3.66-2.35,8.21-1.39,12.25-1,.43-3.81.29-7.94,2.43-11.29,2.73-4.42,8.36-6.17,13.32-5.7C393.06,317.79,395.67,320.24,398.27,322.22Z" transform="translate(-138.53 -135.89)"/><path class="cls-4" d="M210.63,446.43a4.62,4.62,0,0,1,3.79-5.94,80,80,0,0,1,9.54.44c9.58.82,19.21,1,28.76,2.15.9.47,1.79.95,2.67,1.46,2.74,3.85,3.63,8.56,5,13q8.39,27.92,16.77,55.83c1,3.49,2,7,3.12,10.43.64,2,1.25,4.09,1.88,6.14q33.63-1.66,67.27-3.32a6.63,6.63,0,0,1,5.52,1.86c-.38,1.29-.72,2.61-1.05,3.93-15.41,1.62-30.95,1.75-46.41,2.78-9.34.39-18.66,1.19-28,1.36-9.32-.5-18.53-2.24-27.85-2.83l-2.3-.28c-3.68-.48-8.52-.71-9.94-4.89-7.74-21.22-14.83-42.69-22.6-63.9C215,458.49,212.39,452.59,210.63,446.43Zm26.09,22.34c-3.52,2.53-1.46,7.91.58,10.87,1.41,2.28,5.37,5.12,7.44,2.07,1.51-3.42,0-7.41-2.16-10.21C241.22,469.82,239,467.88,236.72,468.77Z" transform="translate(-138.53 -135.89)"/><path class="cls-4" d="M204.12,568.84c5.17-10.85,16.44-16.48,26.46-22,1.86,2.46,4.58,3.95,7.33,5.2a240.3,240.3,0,0,0-18,23.65C213.7,576.08,208.86,572.14,204.12,568.84Z" transform="translate(-138.53 -135.89)"/><path class="cls-4" d="M150.15,669.64A82.62,82.62,0,0,1,189.5,650.8c0,1.93-.89,4.38.76,5.92,2.09,2,5.16,2.23,7.79,3.07-3.36,3.2-6.49,6.69-10.31,9.36-8.39,4.26-16.88,8.75-26.23,10.42-3.16.49-7,.84-9.5-1.54C149.76,675.85,150.25,672.47,150.15,669.64Z" transform="translate(-138.53 -135.89)"/><path class="cls-4" d="M260.93,652.07c7-2,14.37-.71,21.52-.65q149.94,3.75,299.88,7.64,1.88,5.13,3.95,10.18l-313.77-8.48c-4.35-.25-9.06.28-12.45,3.3-4.06,3.14-5.78,8.4-5.39,13.41q3.08,124.06,6.27,248.11c-.15,3.47,1.45,7.25,4.91,8.52,3.45,1,7.11.54,10.66.63q212.52-.12,425.05-.08a7.84,7.84,0,0,0,8.27-8.17q1-56.54,1.73-113.07c3.77,2.43,7.5,5,11.41,7.17-.35,15.73-.32,31.46-.68,47.19-.3,17.23-.53,34.46-.78,51.7-.13,5.39,0,10.8-.31,16.2-.06,2.58-1.91,4.55-3.52,6.36,10.14-.26,20.28,0,30.42-.13,1.33,6.77.37,13.77.61,20.64.37,1.92-1.73,2.4-3.16,2.2q-82.93,0-165.87,0-57.7-.06-115.4,0-116.91-.09-233.82,0c-4.73,0-9.46.09-14.18-.14-.39-7.08-.3-14.2-.11-21.28-.24-1.83,2.27-1.31,3.34-1.49,12.25.08,24.5-.11,36.74.11-2-2-3.73-4.48-3.54-7.44q-.86-36.18-1.7-72.36-.15-7-.33-14-2-87.34-4-174.68A21,21,0,0,1,260.93,652.07Z" transform="translate(-138.53 -135.89)"/><path class="cls-5" d="M400.56,348.61a29.08,29.08,0,0,1,7.95-2.86,95.77,95.77,0,0,1,4,13.59c3.64-2,3.76-9.51,8.9-8.13,5,3.37,1.76,9.91-1.14,13.58a55.27,55.27,0,0,0,4.14,8.64c-1.35,2.38-3.32,5-2.45,7.91,1.19,4.36,2.46,8.72,3.84,13,.3,1.88,2.29,2.38,3.76,3.11l-2.62-.58c-.3,1.93,1,4.75-1,6-8,5.67-18.93,5.58-27.77,1.89-.48-2.06-.95-4.13-1.43-6.18l-2.28.6,2.08-.68c-.08-2.23-.11-4.45-.18-6.67-3.87-1.48-8-3.16-10.36-6.74-5.59-7.85-8.16-17.39-10-26.72C384.81,357.11,392.78,352.76,400.56,348.61Z" transform="translate(-138.53 -135.89)"/><path class="cls-5" d="M725,430.06c3-1,5.4,1.88,7.87,3.13,28.66,17.69,61.44,27.45,94.28,33.86a488,488,0,0,0,53.32,7,4.1,4.1,0,0,1,4.08,4.48c3.14,35.63,2.44,71.7-3.46,107a318.32,318.32,0,0,1-30.41,93.19c-26.38,51.53-68.48,95-119.54,122.42a5.07,5.07,0,0,1-6.19-.13c-27.92-18-54-39-75.94-64.08a265.77,265.77,0,0,1-48.4-79.52c-13.63-35-19.37-72.62-21.43-110-1.08-18.29-1.37-36.62-1.69-54.93-.44-2.53,1.17-5.51,4-5.22,22.36-.36,44.51-5,65.6-12.26,25.58-8.91,49.84-21.93,70.76-39.21C720.27,433.92,722.36,431.62,725,430.06Zm.67,1.57a60,60,0,0,0-6.07,5,222.81,222.81,0,0,1-49.9,31.18C642.05,480.34,612,488.42,581.56,489c-2-.17-2.54,1.8-2.36,3.48.42,27,.87,54.1,3.76,81,3.5,33.23,11,66.3,24.85,96.81a268.78,268.78,0,0,0,52,75.92c19.79,20.55,42.4,38.26,66.4,53.62,1.82,1.56,4-.06,5.71-.88a287.76,287.76,0,0,0,110.9-109.16c17.43-30.32,29.16-63.77,35.53-98.12,6.91-36.9,7.79-74.74,4.69-112.1-.15-1.63-.39-3.85-2.53-3.75a491.57,491.57,0,0,1-56.16-7.57c-33.25-6.7-66.44-16.89-95.16-35.38C728,432.36,727,431.1,725.67,431.63Z" transform="translate(-138.53 -135.89)"/><path class="cls-5" d="M355.6,454.52c3.32,2.61,6.86,5,9.79,8.06,1,1.05.5,2.62.49,3.92-.94,9.05-3.12,17.9-4.3,26.92-4,5.5-8.79,10.41-13.42,15.41a113.07,113.07,0,0,0,11.28-5.65c15.1-8.55,28.23-20.13,40.14-32.65,8.52,6.48,16.65,14.92,18.18,26-15.8,18.34-39.45,27.86-62.81,32a6.63,6.63,0,0,0-5.52-1.86q-33.63,1.62-67.27,3.32c-.63-2-1.24-4.1-1.88-6.14,1.63.11,3.26.24,4.89.37.93-1,1.87-2,2.81-2.94,4-4.07,7.87-8.67,13.28-10.85,4.65-1.64,9.35.69,13.52,2.58a91.87,91.87,0,0,0,12.1-10.44A122.62,122.62,0,0,0,355.6,454.52Z" transform="translate(-138.53 -135.89)"/><path class="cls-5" d="M703.64,495.74c16.9-.71,33.86-.1,50.79-.32A37.7,37.7,0,0,1,793,532.47c0,8.67,0,17.35,0,26,.22,3.25-2.13,6.61-5.45,7a46.53,46.53,0,0,1-10.08,0c-3.31-.35-5.7-3.66-5.52-6.89-.16-8.69.13-17.38-.08-26.07,0-8.55-7.75-16-16.28-16-15.36-.09-30.72,0-46.08,0-8.9-.59-17.32,7-17.43,15.93s.17,18-.15,27a6.47,6.47,0,0,1-6.36,6.12c-3.71.06-7.71.67-11.21-.79-4.79-2.68-3.21-8.84-3.44-13.33.49-10.65-1.52-21.8,2.55-32A37.89,37.89,0,0,1,703.64,495.74Z" transform="translate(-138.53 -135.89)"/><path class="cls-5" d="M665,572.09a22.93,22.93,0,0,1,4.55-.41q60,0,120,0c4.12.08,8.52-.5,12.33,1.47a14.19,14.19,0,0,1,7.84,13.39c0,32.33,0,64.66,0,97a14,14,0,0,1-8.34,12.82c-3.35,1.59-7.16,1.11-10.75,1.19q-61-.07-122,0c-7.63.39-14.56-6.46-14.3-14.08-.08-31,0-62,0-92.93,0-2.94-.14-5.93.61-8.79A14.17,14.17,0,0,1,665,572.09Zm53.28,29.12a23.55,23.55,0,0,0-9.62,22.41c.83,7,5.32,13.16,11.16,17-1.8,8.67-4.26,17.2-6,25.88-.75,3.27,2.43,6.31,5.65,6,8.38,0,16.77.06,25.15,0,3.23.36,6.36-2.78,5.54-6-1.77-8.64-4.24-17.14-6-25.79,6.75-4.34,11.45-11.91,11.41-20a23.53,23.53,0,0,0-37.24-19.36Z" transform="translate(-138.53 -135.89)"/><path class="cls-6" d="M597.65,371.9a236.38,236.38,0,0,1,71.8,5c-2.34,1.58-4.82,3.14-6.17,5.72,2.68-1.68,5.14-3.67,7.64-5.59,6.52,1.81,13.1,3.42,19.53,5.57A240.79,240.79,0,0,1,781,436.44c-15.84-5.58-31.25-12.74-45.07-22.35-3.76-2.6-7.61-6.06-12.51-5.69-2.09.08-3.58,1.7-5,3a181.34,181.34,0,0,1-33.64,26.42A210.62,210.62,0,0,0,557.11,431c-34.68,8.77-66.63,27-92.82,51.27A223.39,223.39,0,0,0,401,590.12a15.84,15.84,0,0,1-14.51,12.36c-4.43.33-8.43-1.86-12.32-3.65-33.13-15.2-72.35-15.23-106.07-1.85-5.88,2.22-11.17,5.78-17.22,7.58,4.4-6.84,7.93-14.27,13.39-20.37a58,58,0,0,1,34.14-19.49,80.23,80.23,0,0,1,35,1.93c13.78,4.35,28.89,6.59,43.08,2.84,11.38-3,20.48-11.3,26.84-20.93,23.72-23.4,45.5-49.85,58-81,5-13.27,9.35-28.19,4.81-42.19a238.73,238.73,0,0,1,107.49-50.16c6-1,12,0,18,.41.69-1,1.38-2,2.08-3C595.07,372.29,596.36,372.07,597.65,371.9Zm47.18,21a21.1,21.1,0,0,0,7.9-3.19c.81-.28,2.91-2.61.7-2.44C650.35,388.61,646.37,389.59,644.83,392.89Zm-18.53,5.65c-.07.56-.2,1.68-.27,2.23,3.15-.91,6.46-1.58,9.31-3.28.07-.51.21-1.54.27-2.05A50.61,50.61,0,0,0,626.3,398.54Zm-82.23-1.18c2.16,3.67,7,3.58,10.76,4.37-.17-.48-.52-1.44-.7-1.92A22.56,22.56,0,0,0,544.07,397.36Zm62.38,5.24-1,2.07c3.31,0,6.74-.09,9.85-1.37.17-.5.52-1.51.69-2C612.79,401.61,609.62,402.08,606.45,402.6Zm-42.22-.07c2.23,3.19,6.82,2.06,10.15,2.82,0-.47.13-1.42.18-1.9A43.86,43.86,0,0,0,564.23,402.53Zm21.35,1.52c0,.52,0,1.55.06,2.07,3.12,0,6.23-.07,9.35-.17.06-.49.17-1.48.23-2C592,404,588.79,404,585.58,404.05Z" transform="translate(-138.53 -135.89)"/><path class="cls-6" d="M197.54,590.54c5.19-.09,10.12-2,15.11-3.24-11.34,19.59-19.55,41.11-23.15,63.5a82.62,82.62,0,0,0-39.35,18.84,99,99,0,0,0-7.46,7.59l-.56-.68a152.63,152.63,0,0,1,22.59-55,160.55,160.55,0,0,1,29.45-33.1A35.11,35.11,0,0,0,197.54,590.54Z" transform="translate(-138.53 -135.89)"/><path class="cls-6" d="M882.27,650.29a107,107,0,0,1,50.67,27.46,110.5,110.5,0,0,1,26.33,39.83,112.11,112.11,0,0,1,1.14,76.95A110.45,110.45,0,0,1,905,857a106.31,106.31,0,0,1-44.45,10.76c-7.89,0-15.78.22-23.66-.13,7.19-2.18,14.7-3.23,21.72-6,19.77-7.11,36.74-21.3,48.07-38.91,10.28-15.7,15.39-34.52,15.57-53.21-.14-23-8.05-46.09-23-63.64-8.25-10.07-18.8-18.07-30.18-24.3A324.2,324.2,0,0,0,882.27,650.29Z" transform="translate(-138.53 -135.89)"/><path class="cls-6" d="M198.05,659.79l1-.87a93.56,93.56,0,0,1-4.81,11.24c-4.52,10.18-7.28,21-9.24,32-1.92,11.66-3,23.55-1.8,35.34a140.87,140.87,0,0,0,52.06,100.3c4.9,3.8,9.8,7.71,15.43,10.4q.18,7,.33,14a153.62,153.62,0,0,1-79.34-53.91,159,159,0,0,1-33.1-94.77c-.31-12.09,1.11-24.12,3.13-36,.53,2.72,1.29,6.68,4.8,6.78,15,.81,30-5.31,41.24-15.1C191.56,666.48,194.69,663,198.05,659.79Z" transform="translate(-138.53 -135.89)"/><path class="cls-7" d="M626.3,398.54a50.61,50.61,0,0,1,9.31-3.1c-.06.51-.2,1.54-.27,2.05-2.85,1.7-6.16,2.37-9.31,3.28C626.1,400.22,626.23,399.1,626.3,398.54Z" transform="translate(-138.53 -135.89)"/><path class="cls-7" d="M544.07,397.36a22.56,22.56,0,0,1,10.06,2.45c.18.48.53,1.44.7,1.92C551.12,400.94,546.23,401,544.07,397.36Z" transform="translate(-138.53 -135.89)"/><path class="cls-7" d="M606.45,402.6c3.17-.52,6.34-1,9.54-1.32-.17.51-.52,1.52-.69,2-3.11,1.28-6.54,1.33-9.85,1.37Z" transform="translate(-138.53 -135.89)"/><path class="cls-7" d="M224,440.93c1.38-2.46,2.81-4.88,4.28-7.28a84.48,84.48,0,0,1,24.48,9.43C243.17,441.94,233.54,441.75,224,440.93Z" transform="translate(-138.53 -135.89)"/><path class="cls-7" d="M255.39,444.54c11.21,6.07,21.47,13.73,31.44,21.63a483.46,483.46,0,0,1,40.05,36.34A91.87,91.87,0,0,1,314.78,513c-4.17-1.89-8.87-4.22-13.52-2.58-5.41,2.18-9.29,6.78-13.28,10.85-3.7-3.36-7.36-6.76-11.31-9.81l.49,1.95q-8.4-27.92-16.77-55.83C259,453.1,258.13,448.39,255.39,444.54Z" transform="translate(-138.53 -135.89)"/><path class="cls-7" d="M216.8,464.64c7.77,21.21,14.86,42.68,22.6,63.9,1.42,4.18,6.26,4.41,9.94,4.89l-1.25-.08c0,2.41.11,4.82.24,7.24a29.44,29.44,0,0,0,5.57-6.07l-2.26-.81c9.32.59,18.53,2.33,27.85,2.83,9.34-.17,18.66-1,28-1.36,15.46-1,31-1.16,46.41-2.78,7.48,6.64,16.05,12.38,25.84,14.92,7.68,2.21,15.75,2,23.63,1.22-6.36,9.63-15.46,18-26.84,20.93-14.19,3.75-29.3,1.51-43.08-2.84a80.23,80.23,0,0,0-35-1.93,58,58,0,0,0-34.14,19.49c-5.46,6.1-9,13.53-13.39,20.37A207.56,207.56,0,0,1,199,658.92l-1,.87c-2.63-.84-5.7-1.08-7.79-3.07-1.65-1.54-.78-4-.76-5.92,3.6-22.39,11.81-43.91,23.15-63.5q3.53-5.87,7.23-11.61a240.3,240.3,0,0,1,18-23.65c-2.75-1.25-5.47-2.74-7.33-5.2C219.12,521.32,211.84,492.63,216.8,464.64Z" transform="translate(-138.53 -135.89)"/><path class="cls-7" d="M260.06,664.06c3.39-3,8.1-3.55,12.45-3.3l313.77,8.48c.64,1.54,1.28,3.08,2,4.64-12.1,0-24.2-1.12-36.28-.54,1.26,2.53,4.18,2,6.5,2.19,10.27.13,20.53.59,30.81.71,15.36,35,38.3,66.3,65.82,92.67-52.74.11-105.47,0-158.21,0q0,7,0,14.1c54.07,0,108.14,0,162.21,0,0-3.41.06-6.82.11-10.22A402,402,0,0,0,704,808.36c.07,2.37.11,4.74.3,7.12,2.14-1,2.06-3.33,2.44-5.27q2.37,1.6,4.8,3.2-.81,56.54-1.73,113.07a7.84,7.84,0,0,1-8.27,8.17q-212.52.11-425,.08c-3.55-.09-7.21.38-10.66-.63-3.46-1.27-5.06-5.05-4.91-8.52q-3-124.05-6.27-248.11C254.28,672.46,256,667.2,260.06,664.06Zm18.71,19.75c-5,1.4-8.12,6.63-7.68,11.72q0,108,0,216a11.52,11.52,0,0,0,4.1,9.33c2.52,2.32,6.12,2.48,9.36,2.51,54.69-.11,109.37,0,164-.06,6.32.34,11.84-5.53,11.54-11.75q0-105,0-210c.29-5.92-4.6-11.7-10.65-11.8-54.34-2.17-108.69-4.12-163-6.3A26.66,26.66,0,0,0,278.77,683.81Zm268.09,13.05c-3,4.84-1.52,10.75-1.81,16.11a8.57,8.57,0,0,0,6.14.38c0-3.32-.21-6.64,0-9.94a6.55,6.55,0,0,1,6.34-6.26q7.53-.12,15.07,0c3.3,0,6,3,6.21,6.23s.07,6.69,0,10a8.36,8.36,0,0,0,6.09-.52c-.06-3.74.21-7.5-.14-11.23a12.32,12.32,0,0,0-11.25-10.6c-5.34-.18-10.69-.06-16-.06A12.26,12.26,0,0,0,546.86,696.86Zm-7,23.61c0,11.54,0,23.08,0,34.62l2.08,2c14.52.12,29,0,43.57.06,1.81.26,3.26-.79,4.56-1.9,0-12.19,0-24.37,0-36.56-1.41-1-2.67-2.73-4.61-2.5-13.37,0-26.74,0-40.11,0C542.85,715.85,539.34,717.37,539.87,720.47ZM497,792.86q.06,6.63,0,13.27,81.45,0,162.89,0,0-6.61,0-13.22Q578.41,792.82,497,792.86Zm0,24q0,6.63,0,13.28c32.06,0,64.12,0,96.17,0,0-4.45,0-8.88,0-13.32Q545.07,816.95,497,816.85Z" transform="translate(-138.53 -135.89)"/><path class="cls-7" d="M556.88,729.2a33.06,33.06,0,0,1,5.3-5.21c1.88,0,3.77,0,5.66,0a45.54,45.54,0,0,1,5.16,5.14c0,1.87,0,3.74,0,5.63q-1.61,1.93-3.23,3.85c.22,3.41,1.34,6.7,1.43,10.12-3.26,2.32-7.91.87-11.71.92-1.72-3.32.73-7.16.78-10.69C557.4,736.45,556.49,732.89,556.88,729.2Z" transform="translate(-138.53 -135.89)"/><path class="cls-8" d="M426.93,396.9l2.62.58c15.49,3.31,29,14.13,36.67,27.82,4.54,14,.16,28.92-4.81,42.19-12.54,31.2-34.32,57.65-58,81-7.88.81-15.95,1-23.63-1.22C370,544.78,361.38,539,353.9,532.4c.33-1.32.67-2.64,1.05-3.93,23.36-4.09,47-13.61,62.81-32-1.53-11.07-9.66-19.51-18.18-26-11.91,12.52-25,24.1-40.14,32.65.8-3.24,1.57-6.48,2.14-9.76,1.18-9,3.36-17.87,4.3-26.92,0-1.3.54-2.87-.49-3.92-2.93-3.07-6.47-5.45-9.79-8.06-2.16-2-6.34-3.28-5.86-6.86,1.25-4,3.95-7.25,6.14-10.72,7.12-10.45,14.6-20.67,22.51-30.53,3.71-5.07,10.65-5,16-7.21l2.28-.6c.48,2,1,4.12,1.43,6.18,8.84,3.69,19.73,3.78,27.77-1.89C428,401.65,426.63,398.83,426.93,396.9Z" transform="translate(-138.53 -135.89)"/><path class="cls-8" d="M718.45,411.41c1.42-1.31,2.91-2.93,5-3,4.9-.37,8.75,3.09,12.51,5.69,13.82,9.61,29.23,16.77,45.07,22.35,35.1,12.46,72.27,18.19,109.34,20.57a11.77,11.77,0,0,1,10.87,10.41c6.52,61.3,2.28,124.63-19,182.87A324.2,324.2,0,0,1,869,681.5C843,735,801.19,780.74,749.93,811c-5.79,3.32-11.6,6.63-17.69,9.36a13,13,0,0,1-9.27.26c-3.91-2.22-7.64-4.74-11.41-7.17q-2.43-1.59-4.8-3.2c-.93-.63-1.84-1.23-2.74-1.85a402,402,0,0,1-44.83-35.57c-1.4-1.28-2.76-2.58-4.11-3.88-27.52-26.37-50.46-57.72-65.82-92.67l-1-2.36c-.67-1.56-1.31-3.1-2-4.64q-2.07-5.06-3.95-10.18c-12.21-33.16-18-68.35-20.36-103.51-1.71-24.3-1.8-48.67-2.35-73A12.32,12.32,0,0,1,565,471c4.29-2.9,9.69-1.47,14.51-1.5,15.92.25,31.75-2.51,47.09-6.61a222.62,222.62,0,0,0,58.17-25.06A181.34,181.34,0,0,0,718.45,411.41ZM725,430.06c-2.64,1.56-4.73,3.86-7.11,5.76C697,453.1,672.71,466.12,647.13,475c-21.09,7.3-43.24,11.9-65.6,12.26-2.87-.29-4.48,2.69-4,5.22.32,18.31.61,36.64,1.69,54.93,2.06,37.39,7.8,75,21.43,110A265.77,265.77,0,0,0,649,737c21.9,25,48,46.12,75.94,64.08a5.07,5.07,0,0,0,6.19.13c51.06-27.4,93.16-70.89,119.54-122.42a318.32,318.32,0,0,0,30.41-93.19c5.9-35.32,6.6-71.39,3.46-107a4.1,4.1,0,0,0-4.08-4.48,488,488,0,0,1-53.32-7c-32.84-6.41-65.62-16.17-94.28-33.86C730.4,431.94,728,429.07,725,430.06Z" transform="translate(-138.53 -135.89)"/><path class="cls-8" d="M725.67,431.63c1.28-.53,2.36.73,3.47,1.2,28.72,18.49,61.91,28.68,95.16,35.38a491.57,491.57,0,0,0,56.16,7.57c2.14-.1,2.38,2.12,2.53,3.75,3.1,37.36,2.22,75.2-4.69,112.1-6.37,34.35-18.1,67.8-35.53,98.12a287.76,287.76,0,0,1-110.9,109.16c-1.75.82-3.89,2.44-5.71.88-24-15.36-46.61-33.07-66.4-53.62a268.78,268.78,0,0,1-52-75.92c-13.88-30.51-21.35-63.58-24.85-96.81-2.89-26.89-3.34-54-3.76-81-.18-1.68.31-3.65,2.36-3.48,30.47-.55,60.49-8.63,88.14-21.2a222.81,222.81,0,0,0,49.9-31.18A60,60,0,0,1,725.67,431.63Zm-22,64.11a37.89,37.89,0,0,0-30.22,23.76c-4.07,10.18-2.06,21.33-2.55,32,.23,4.49-1.35,10.65,3.44,13.33,3.5,1.46,7.5.85,11.21.79a6.47,6.47,0,0,0,6.36-6.12c.32-9-.11-18,.15-27s8.53-16.52,17.43-15.93c15.36,0,30.72,0,46.08,0,8.53-.08,16.24,7.42,16.28,16,.21,8.69-.08,17.38.08,26.07-.18,3.23,2.21,6.54,5.52,6.89a46.53,46.53,0,0,0,10.08,0c3.32-.38,5.67-3.74,5.45-7,.06-8.67,0-17.35,0-26a37.7,37.7,0,0,0-38.53-37.05C737.5,495.64,720.54,495,703.64,495.74ZM665,572.09a14.17,14.17,0,0,0-10.17,9.63c-.75,2.86-.6,5.85-.61,8.79.08,31,0,62,0,92.93-.26,7.62,6.67,14.47,14.3,14.08q61,0,122,0c3.59-.08,7.4.4,10.75-1.19a14,14,0,0,0,8.34-12.82c.06-32.33,0-64.66,0-97a14.19,14.19,0,0,0-7.84-13.39c-3.81-2-8.21-1.39-12.33-1.47q-60,0-120,0A22.93,22.93,0,0,0,665,572.09Z" transform="translate(-138.53 -135.89)"/><path class="cls-8" d="M718.25,601.21a23.53,23.53,0,0,1,37.24,19.36c0,8.14-4.66,15.71-11.41,20,1.77,8.65,4.24,17.15,6,25.79.82,3.26-2.31,6.4-5.54,6-8.38.07-16.77,0-25.15,0-3.22.36-6.4-2.68-5.65-6,1.78-8.68,4.24-17.21,6-25.88-5.84-3.85-10.33-10-11.16-17A23.55,23.55,0,0,1,718.25,601.21Z" transform="translate(-138.53 -135.89)"/><path class="cls-9" d="M557.11,431a210.62,210.62,0,0,1,127.7,6.82,222.62,222.62,0,0,1-58.17,25.06c-15.34,4.1-31.17,6.86-47.09,6.61-4.82,0-10.22-1.4-14.51,1.5a12.32,12.32,0,0,0-5.42,11.54c.55,24.34.64,48.71,2.35,73,2.36,35.16,8.15,70.35,20.36,103.51q-149.94-3.85-299.88-7.64c-7.15-.06-14.53-1.35-21.52.65a21,21,0,0,0-14.23,21.42q1.94,87.35,4,174.68c-5.63-2.69-10.53-6.6-15.43-10.4a140.87,140.87,0,0,1-52.06-100.3c-1.19-11.79-.12-23.68,1.8-35.34,2-10.93,4.72-21.79,9.24-32A93.56,93.56,0,0,0,199,658.92a207.56,207.56,0,0,0,51.85-54.36c6.05-1.8,11.34-5.36,17.22-7.58,33.72-13.38,72.94-13.35,106.07,1.85,3.89,1.79,7.89,4,12.32,3.65A15.84,15.84,0,0,0,401,590.12a223.39,223.39,0,0,1,63.28-107.84C490.48,458,522.43,439.78,557.11,431Z" transform="translate(-138.53 -135.89)"/><path class="cls-9" d="M749.93,811C801.19,780.74,843,735,869,681.5c11.38,6.23,21.93,14.23,30.18,24.3,15,17.55,22.89,40.66,23,63.64-.18,18.69-5.29,37.51-15.57,53.21-11.33,17.61-28.3,31.8-48.07,38.91-7,2.79-14.53,3.84-21.72,6-12.35.48-24.75,0-37.12.22-25.82,0-51.63,0-77.45,0,.36-15.73.33-31.46.68-47.19a13,13,0,0,0,9.27-.26C738.33,817.59,744.14,814.28,749.93,811Z" transform="translate(-138.53 -135.89)"/></svg>